<?xml version="1.0" encoding="utf-8"?>
<svg version="1.1" viewBox="0 0 342 191" width="342.0pt" height="191.0pt" xmlns="http://www.w3.org/2000/svg">
  <path d="M 20.32 2.25 C 18.57 5.50 16.34 4.01 13.46 4.66 C 11.14 6.12 8.58 6.95 6.21 8.25 C 1.87 12.46 5.76 18.94 2.84 23.04 C 1.76 18.34 -0.40 11.46 1.95 6.96 C 6.97 0.74 13.12 1.73 20.32 2.25 Z" fill="#ababab"/>
  <path d="M 20.32 2.25 L 21.09 2.34 C 20.96 5.64 20.35 8.87 19.92 12.13 C 15.13 14.49 19.59 5.77 13.46 8.99 C 18.05 13.43 8.19 16.16 4.97 16.45 C 10.74 21.39 14.84 15.98 19.34 21.21 C 19.42 25.74 19.89 29.61 21.04 33.98 C 18.95 28.36 16.97 34.32 20.71 35.72 C 15.53 35.84 12.05 41.79 11.26 46.35 C 5.35 49.63 10.47 39.04 4.04 39.98 C 2.28 37.15 5.29 34.70 1.69 33.78 C 1.83 32.61 2.00 31.45 2.20 30.29 C 4.65 29.67 7.17 24.96 2.67 26.89 C 2.48 25.51 2.12 24.35 2.84 23.04 C 5.76 18.94 1.87 12.46 6.21 8.25 C 8.58 6.95 11.14 6.12 13.46 4.66 C 16.34 4.01 18.57 5.50 20.32 2.25 Z" fill="#5f5f5f"/>
  <path d="M 21.09 2.34 C 22.37 2.87 23.60 3.54 24.83 4.15 C 24.65 6.51 24.73 8.71 24.98 11.07 C 25.05 13.10 25.13 15.13 25.14 17.16 C 24.34 20.06 23.63 22.98 22.99 25.92 C 21.08 21.71 20.97 16.64 19.92 12.13 C 20.35 8.87 20.96 5.64 21.09 2.34 Z" fill="#3e3e3e" stroke="#3e3e3e"/>
  <path d="M 48.20 2.17 C 41.70 4.64 35.72 5.40 31.08 11.19 C 31.82 8.06 34.13 6.55 35.93 4.07 C 30.52 5.06 28.13 6.63 24.98 11.07 C 24.73 8.71 24.65 6.51 24.83 4.15 C 30.57 -0.16 41.22 2.82 48.20 2.17 Z" fill="#b1b1b1" stroke="#b1b1b1"/>
  <path d="M 48.20 2.17 C 51.44 1.93 54.67 1.98 57.91 2.24 C 57.57 3.74 57.22 5.23 57.00 6.76 C 61.73 4.56 66.27 4.48 71.20 3.32 C 73.01 3.17 74.82 3.10 76.64 3.07 C 81.21 4.27 88.50 3.31 93.22 2.24 C 96.22 1.99 99.27 1.85 102.27 2.00 C 102.55 12.33 94.10 19.09 92.85 28.00 C 89.69 33.82 90.07 39.61 89.79 45.97 C 90.06 47.12 88.45 50.07 90.73 48.66 C 91.04 42.39 91.48 36.30 93.25 30.24 C 96.43 24.35 99.09 18.82 104.42 14.46 C 106.04 12.92 108.21 12.54 107.43 9.87 C 108.87 7.50 110.48 5.23 111.97 2.90 C 113.70 2.38 115.35 2.10 117.17 2.06 C 116.35 2.81 115.53 3.56 114.71 4.31 C 110.21 8.67 116.61 4.44 115.81 8.58 C 121.95 11.14 119.52 10.41 118.11 15.47 C 121.60 15.31 120.87 17.17 122.47 19.55 C 124.47 20.40 126.21 20.96 127.78 22.58 C 128.41 18.44 128.67 18.01 132.18 15.80 C 128.72 12.69 127.25 17.72 125.68 13.39 C 123.25 8.40 135.80 12.83 129.81 9.15 C 128.61 4.01 133.50 6.98 136.11 7.73 C 138.67 5.89 144.74 8.22 142.11 3.96 C 143.48 3.83 144.85 3.69 146.22 3.55 C 145.39 7.68 141.84 7.16 147.14 10.12 C 144.72 12.75 140.45 11.02 141.32 15.24 C 141.53 18.75 136.61 17.36 138.31 21.65 C 138.94 25.90 141.18 24.50 144.37 25.67 C 144.82 28.26 143.14 32.01 142.62 34.69 C 145.06 35.79 150.42 36.97 150.98 39.97 C 148.11 39.52 146.15 37.19 143.32 36.98 C 142.85 41.25 148.38 44.12 151.95 44.33 C 151.00 44.45 145.29 46.85 149.34 46.31 C 154.30 44.90 154.30 49.36 155.71 52.70 C 151.82 53.77 152.42 54.74 152.29 50.58 C 147.12 47.85 148.99 54.46 151.27 55.73 C 152.78 56.46 156.77 55.52 153.63 57.68 C 150.49 57.76 147.17 56.76 144.02 56.36 C 144.69 54.04 146.44 52.92 147.88 51.08 C 145.73 49.52 139.41 51.97 145.73 48.46 C 143.01 44.32 142.83 46.67 139.12 45.92 C 140.80 44.61 142.49 43.73 143.97 42.24 C 141.39 41.10 138.72 41.02 135.96 40.61 C 137.76 38.42 139.75 40.80 139.84 37.47 C 145.14 35.04 136.96 35.06 137.35 33.33 C 137.02 28.00 135.76 35.97 132.84 32.20 C 130.61 35.05 127.93 38.44 127.02 41.95 C 127.10 44.85 131.65 41.93 130.70 44.60 C 127.45 45.25 126.85 44.85 125.43 47.89 C 124.59 45.52 124.03 42.90 122.79 40.72 C 118.54 40.88 115.47 38.21 111.18 39.14 C 110.41 41.95 120.06 39.91 120.43 43.77 C 119.15 46.66 112.52 52.62 117.75 54.90 C 113.36 60.56 120.05 57.00 122.85 56.47 C 125.83 57.65 127.55 61.80 130.03 63.96 C 127.42 66.68 126.39 67.46 127.11 71.55 C 129.94 71.96 133.24 70.09 134.25 73.82 C 134.04 77.59 138.64 76.23 138.85 73.10 C 139.82 71.44 134.39 74.05 136.56 71.56 C 140.58 70.53 136.44 68.69 135.96 66.30 C 139.80 66.81 141.06 67.73 143.77 64.36 C 140.48 63.57 141.41 64.20 142.87 61.79 C 141.10 59.47 138.55 61.28 139.05 57.12 C 141.83 58.50 143.17 59.44 146.39 58.43 C 152.85 56.63 153.13 65.20 159.65 63.36 C 162.12 65.92 165.60 67.97 166.40 71.46 C 171.29 67.98 169.85 75.27 169.99 78.00 C 168.89 85.09 163.78 81.94 159.90 86.90 C 157.66 89.45 154.81 86.47 152.85 85.16 C 148.01 84.59 143.37 85.04 138.56 85.60 C 138.31 78.21 130.85 82.56 132.62 75.97 C 128.01 80.32 126.27 81.21 127.45 88.10 C 124.22 87.36 125.52 84.90 121.30 85.43 C 116.24 83.87 122.12 84.00 123.96 83.32 C 123.75 79.48 118.18 83.91 119.11 80.06 C 119.52 75.71 125.41 82.08 125.21 78.13 C 126.13 75.04 121.71 75.23 122.48 71.25 C 120.67 71.59 115.57 70.53 116.15 73.60 C 117.41 73.88 118.67 74.15 119.93 74.41 C 116.66 77.72 111.29 80.40 106.78 80.86 C 104.44 82.21 108.34 82.88 108.97 84.19 C 110.79 90.42 99.48 83.18 100.28 89.38 C 99.70 92.71 102.21 89.89 102.35 88.38 C 103.03 91.77 108.28 90.12 105.98 93.03 C 104.60 96.26 103.99 92.38 101.83 94.39 C 98.17 96.30 99.45 91.75 96.03 97.80 C 92.45 94.38 90.68 100.38 91.94 103.01 C 92.89 105.64 94.91 106.84 96.84 108.64 C 95.12 109.41 86.92 109.68 91.47 112.58 C 94.23 114.57 90.35 115.51 89.10 116.67 C 90.58 117.51 95.18 117.13 93.12 119.99 C 90.86 123.27 92.86 125.99 91.31 129.65 C 95.24 131.04 93.97 134.76 96.11 137.93 C 96.77 139.62 99.12 141.34 96.68 142.70 C 94.56 143.34 91.20 141.45 90.36 139.30 C 88.76 140.53 88.85 143.03 88.29 144.89 C 85.09 144.38 82.72 140.39 79.26 139.46 C 80.92 138.13 82.38 137.70 84.44 137.41 C 84.59 134.52 84.94 135.39 87.47 134.79 C 86.64 133.75 85.11 127.58 84.97 131.95 C 84.54 137.17 81.64 129.86 79.35 130.38 C 74.79 130.56 71.30 130.66 68.07 126.91 C 66.38 123.98 65.72 130.35 64.30 128.69 C 62.00 127.35 63.56 124.61 64.24 122.75 C 70.27 122.52 73.19 117.15 79.73 119.40 C 84.61 114.27 77.94 117.31 75.27 114.91 C 73.91 113.06 73.72 113.03 71.32 112.88 C 72.37 115.16 76.17 117.33 71.82 118.61 C 66.33 117.93 63.94 112.82 57.74 115.69 C 57.23 117.73 57.02 119.82 56.38 121.84 C 53.26 122.58 54.78 119.54 54.03 117.65 C 51.96 118.51 52.12 117.75 50.52 116.50 C 48.03 116.09 45.37 116.80 42.85 116.32 C 42.74 113.02 41.12 112.82 39.03 110.77 C 42.26 109.55 45.38 108.19 48.17 106.10 C 44.41 104.25 45.27 104.06 46.10 100.41 C 49.18 103.30 55.57 102.96 56.82 106.74 C 54.88 107.53 51.62 107.44 50.15 108.82 C 54.82 110.75 56.46 107.80 60.86 107.97 C 59.69 109.30 58.41 110.54 57.24 111.87 C 59.53 112.41 64.74 115.37 65.61 111.64 C 66.90 109.68 66.73 115.38 68.42 114.86 C 69.60 111.54 68.47 110.09 72.93 109.49 C 69.76 108.55 66.53 107.98 63.43 106.75 C 64.49 103.99 66.01 102.28 64.88 99.15 C 62.33 101.16 60.82 105.21 57.32 105.09 C 57.58 103.25 60.48 99.72 57.00 99.46 C 54.33 99.15 52.34 95.71 52.47 93.15 C 50.51 94.08 44.35 102.08 45.67 95.12 C 44.01 92.33 41.62 88.94 38.49 92.48 C 37.43 96.31 31.89 89.16 35.33 90.65 C 38.27 92.39 35.27 84.73 33.99 88.00 C 31.85 90.48 31.86 85.40 29.20 87.41 C 29.17 85.85 29.05 84.46 28.61 82.95 C 32.31 81.77 33.73 79.68 36.82 82.44 C 45.53 80.64 29.96 80.30 32.00 75.27 C 30.02 77.33 29.15 78.00 26.17 78.17 C 26.11 65.00 24.74 52.13 26.08 39.00 C 26.07 36.53 26.07 34.13 25.17 31.79 C 24.87 30.81 24.56 29.84 24.25 28.86 C 25.53 21.57 26.73 17.26 31.08 11.19 C 35.72 5.40 41.70 4.64 48.20 2.17 Z" fill="#6b6b6b" stroke="#6b6b6b"/>
  <path d="M 57.91 2.24 C 62.59 2.00 66.62 2.08 71.20 3.32 C 66.27 4.48 61.73 4.56 57.00 6.76 C 57.22 5.23 57.57 3.74 57.91 2.24 Z" fill="#b2b2b2" stroke="#b2b2b2"/>
  <path d="M 93.22 2.24 C 88.50 3.31 81.21 4.27 76.64 3.07 C 81.67 1.14 87.92 2.15 93.22 2.24 Z" fill="#b2b2b2" stroke="#b2b2b2"/>
  <path d="M 102.27 2.00 C 103.19 2.06 104.11 2.18 105.02 2.35 C 103.59 5.94 101.79 9.12 101.08 12.99 C 104.36 10.81 105.87 6.22 108.08 3.02 C 109.38 3.00 110.67 2.96 111.97 2.90 C 110.48 5.23 108.87 7.50 107.43 9.87 C 100.60 14.90 96.54 20.43 92.85 28.00 C 94.10 19.09 102.55 12.33 102.27 2.00 Z" fill="#434343" stroke="#434343"/>
  <path d="M 105.02 2.35 C 106.04 2.55 107.06 2.78 108.08 3.02 C 105.87 6.22 104.36 10.81 101.08 12.99 C 101.79 9.12 103.59 5.94 105.02 2.35 Z" fill="#9f9f9f" stroke="#9f9f9f"/>
  <path d="M 117.17 2.06 C 132.85 2.03 148.58 1.80 164.26 2.20 C 158.42 3.40 152.16 3.82 146.22 3.55 C 144.85 3.69 143.48 3.83 142.11 3.96 C 135.40 3.81 129.74 6.00 123.05 3.82 C 119.96 2.79 117.71 4.60 114.71 4.31 C 115.53 3.56 116.35 2.81 117.17 2.06 Z" fill="#b7b7b7" stroke="#b7b7b7"/>
  <path d="M 164.26 2.20 C 166.52 2.11 168.61 2.71 170.79 3.22 C 172.33 3.95 176.04 3.54 176.83 4.81 C 173.25 4.28 166.99 7.72 165.75 4.15 C 162.37 4.81 158.81 5.85 155.96 7.86 C 158.05 8.48 164.07 5.31 163.74 8.87 C 170.93 7.35 177.72 6.43 184.20 3.21 C 185.77 2.91 187.34 2.55 188.92 2.33 C 189.37 4.04 189.24 4.70 191.07 5.44 C 188.71 6.65 186.28 7.65 183.99 8.93 C 189.30 8.94 194.75 6.28 199.26 3.68 L 200.81 3.58 C 209.79 5.01 219.22 3.89 228.29 3.59 C 230.82 4.78 227.56 11.90 224.06 9.97 C 225.81 7.80 227.85 7.84 224.89 5.40 C 220.80 7.27 217.13 5.93 213.21 7.13 C 213.31 9.57 217.62 12.13 213.28 12.40 C 214.01 13.73 214.88 14.93 215.67 16.22 C 211.55 14.31 207.24 12.41 203.26 10.23 C 204.37 9.08 204.40 5.54 202.19 6.25 C 200.13 7.54 198.23 8.90 195.88 9.64 C 194.88 13.28 192.00 14.94 188.32 14.55 C 186.29 14.63 189.66 17.66 187.74 17.51 C 182.07 16.08 179.82 22.08 175.55 24.46 C 171.75 26.27 168.78 29.03 165.52 31.60 C 164.69 29.95 164.01 28.93 162.32 28.09 C 162.48 30.75 162.50 33.32 162.39 35.98 C 166.87 34.42 170.30 29.90 174.35 27.37 C 177.98 22.94 185.78 28.27 186.71 32.80 C 184.93 32.53 183.16 32.15 181.38 31.90 C 182.00 33.54 185.27 36.84 182.63 38.00 C 179.53 39.83 180.06 41.75 179.63 45.05 C 176.96 40.09 177.05 41.15 171.98 42.56 C 176.24 42.72 178.15 44.19 177.92 48.45 C 176.91 52.98 172.08 45.33 169.77 48.83 C 167.88 47.13 167.59 45.57 167.50 43.14 C 165.47 42.92 162.91 52.82 167.33 48.25 C 168.72 53.13 172.67 56.63 173.41 61.55 C 174.06 63.28 172.22 62.85 171.15 63.56 C 176.41 66.70 180.68 64.38 185.86 63.42 C 189.74 64.77 192.21 61.64 190.55 58.19 C 192.38 57.76 194.29 57.23 196.17 57.24 C 197.21 60.19 198.10 60.98 201.11 59.62 C 204.85 60.81 207.94 58.89 211.74 59.91 C 206.04 55.24 213.02 57.24 209.60 52.04 C 210.64 50.54 214.33 46.82 213.62 51.21 C 214.71 53.24 221.17 52.50 223.58 52.54 C 222.85 56.34 228.55 54.17 229.78 58.88 C 225.02 63.40 233.28 63.44 235.99 64.40 C 234.74 66.14 235.38 66.89 233.23 65.56 C 233.23 70.58 228.58 69.76 225.07 71.43 C 226.65 74.65 238.91 72.04 233.08 77.21 C 234.10 78.76 236.41 79.28 237.94 80.27 C 236.86 82.09 233.66 82.63 235.48 84.90 C 231.23 85.00 225.21 84.77 222.35 88.39 C 220.37 90.25 218.76 87.56 217.11 86.64 C 213.63 85.58 209.57 85.98 205.98 86.17 C 208.67 87.26 210.46 87.23 210.96 90.57 C 205.59 89.94 206.89 94.18 203.12 88.15 C 199.76 91.78 200.77 86.20 200.10 84.05 C 204.39 87.05 210.16 81.22 208.04 77.06 C 204.82 75.36 203.24 72.59 199.54 74.82 C 200.67 71.07 196.62 72.83 194.34 72.07 C 198.46 76.61 192.57 73.28 189.98 74.11 C 192.49 76.62 192.62 79.41 194.63 82.21 C 192.05 81.08 189.96 79.59 187.14 79.03 C 188.24 82.50 186.99 85.84 190.67 81.42 C 191.07 85.22 194.44 82.72 197.04 83.17 C 193.92 86.18 187.16 84.01 185.57 87.07 C 182.95 84.54 179.90 84.37 179.78 80.08 C 179.93 77.40 172.82 80.38 177.33 80.41 C 179.43 79.15 180.13 85.91 177.43 82.57 C 175.00 82.17 171.63 86.72 170.99 89.13 C 168.60 90.77 166.04 91.29 163.19 91.41 C 162.19 94.07 166.75 94.32 165.11 96.55 C 161.47 93.56 154.69 99.05 151.06 97.91 C 147.70 93.65 148.54 99.53 148.58 101.50 C 143.95 100.11 136.45 99.34 133.15 102.87 C 131.44 102.54 133.52 100.07 130.45 99.59 C 134.40 96.40 133.12 95.83 132.02 91.49 C 129.33 93.40 125.28 92.60 124.36 89.16 C 123.69 90.26 123.17 91.42 122.59 92.57 C 118.99 89.41 117.19 84.77 113.15 82.38 C 108.81 83.10 113.66 89.18 116.41 89.42 C 113.18 93.63 120.94 92.88 122.69 96.57 C 123.76 92.28 127.05 93.54 125.91 97.89 C 124.60 102.03 122.16 104.25 118.99 100.04 C 113.42 100.72 119.80 104.95 122.00 104.60 C 123.49 105.32 126.62 102.06 125.82 104.87 C 125.10 107.25 130.79 111.60 127.08 113.05 C 124.43 110.96 123.33 108.31 119.39 109.12 C 119.34 111.10 119.37 113.08 119.42 115.05 C 120.53 114.69 123.20 109.82 122.31 113.33 C 120.57 117.93 126.90 116.44 123.63 119.53 C 122.59 120.20 125.56 122.25 125.88 123.06 C 124.20 122.49 122.78 121.52 121.25 120.68 C 118.94 123.15 115.81 122.16 113.24 120.64 C 114.21 118.46 116.01 117.20 117.48 115.33 C 114.41 112.42 115.22 108.69 109.66 109.73 C 105.48 111.15 112.04 110.33 112.14 112.50 C 109.88 112.34 107.61 112.11 105.35 111.87 C 106.41 109.71 109.74 108.36 106.18 106.77 C 101.88 103.74 110.26 104.59 106.35 102.59 C 103.57 101.44 107.93 98.57 108.78 97.33 C 106.53 96.64 103.01 96.73 101.83 94.39 C 103.99 92.38 104.60 96.26 105.98 93.03 C 108.28 90.12 103.03 91.77 102.35 88.38 C 102.21 89.89 99.70 92.71 100.28 89.38 C 99.48 83.18 110.79 90.42 108.97 84.19 C 108.34 82.88 104.44 82.21 106.78 80.86 C 111.29 80.40 116.66 77.72 119.93 74.41 C 118.67 74.15 117.41 73.88 116.15 73.60 C 115.57 70.53 120.67 71.59 122.48 71.25 C 121.71 75.23 126.13 75.04 125.21 78.13 C 125.41 82.08 119.52 75.71 119.11 80.06 C 118.18 83.91 123.75 79.48 123.96 83.32 C 122.12 84.00 116.24 83.87 121.30 85.43 C 125.52 84.90 124.22 87.36 127.45 88.10 C 126.27 81.21 128.01 80.32 132.62 75.97 C 130.85 82.56 138.31 78.21 138.56 85.60 C 143.37 85.04 148.01 84.59 152.85 85.16 C 154.81 86.47 157.66 89.45 159.90 86.90 C 163.78 81.94 168.89 85.09 169.99 78.00 C 169.85 75.27 171.29 67.98 166.40 71.46 C 165.60 67.97 162.12 65.92 159.65 63.36 C 153.13 65.20 152.85 56.63 146.39 58.43 C 143.17 59.44 141.83 58.50 139.05 57.12 C 138.55 61.28 141.10 59.47 142.87 61.79 C 141.41 64.20 140.48 63.57 143.77 64.36 C 141.06 67.73 139.80 66.81 135.96 66.30 C 136.44 68.69 140.58 70.53 136.56 71.56 C 134.39 74.05 139.82 71.44 138.85 73.10 C 138.64 76.23 134.04 77.59 134.25 73.82 C 133.24 70.09 129.94 71.96 127.11 71.55 C 126.39 67.46 127.42 66.68 130.03 63.96 C 127.55 61.80 125.83 57.65 122.85 56.47 C 120.05 57.00 113.36 60.56 117.75 54.90 C 112.52 52.62 119.15 46.66 120.43 43.77 C 120.06 39.91 110.41 41.95 111.18 39.14 C 115.47 38.21 118.54 40.88 122.79 40.72 C 124.03 42.90 124.59 45.52 125.43 47.89 C 126.85 44.85 127.45 45.25 130.70 44.60 C 131.65 41.93 127.10 44.85 127.02 41.95 C 127.93 38.44 130.61 35.05 132.84 32.20 C 135.76 35.97 137.02 28.00 137.35 33.33 C 136.96 35.06 145.14 35.04 139.84 37.47 C 139.75 40.80 137.76 38.42 135.96 40.61 C 138.72 41.02 141.39 41.10 143.97 42.24 C 142.49 43.73 140.80 44.61 139.12 45.92 C 142.83 46.67 143.01 44.32 145.73 48.46 C 139.41 51.97 145.73 49.52 147.88 51.08 C 146.44 52.92 144.69 54.04 144.02 56.36 C 147.17 56.76 150.49 57.76 153.63 57.68 C 156.77 55.52 152.78 56.46 151.27 55.73 C 148.99 54.46 147.12 47.85 152.29 50.58 C 152.42 54.74 151.82 53.77 155.71 52.70 C 154.30 49.36 154.30 44.90 149.34 46.31 C 145.29 46.85 151.00 44.45 151.95 44.33 C 148.38 44.12 142.85 41.25 143.32 36.98 C 146.15 37.19 148.11 39.52 150.98 39.97 C 150.42 36.97 145.06 35.79 142.62 34.69 C 143.14 32.01 144.82 28.26 144.37 25.67 C 141.18 24.50 138.94 25.90 138.31 21.65 C 136.61 17.36 141.53 18.75 141.32 15.24 C 140.45 11.02 144.72 12.75 147.14 10.12 C 141.84 7.16 145.39 7.68 146.22 3.55 C 152.16 3.82 158.42 3.40 164.26 2.20 Z" fill="#747474" stokel="#747474"/>
  <path d="M 188.92 2.33 C 190.96 2.13 193.17 2.77 195.20 3.08 C 193.85 3.91 192.49 4.73 191.07 5.44 C 189.24 4.70 189.37 4.04 188.92 2.33 Z" fill="#4b4b4b" stroke="#4b4b4b"/>
  <path d="M 227.66 2.79 L 228.29 3.59 C 219.22 3.89 209.79 5.01 200.81 3.58 C 210.04 2.01 218.49 2.79 227.66 2.79 Z" fill="#bebebe" stroke="#bebebe"/>
  <path d="M 252.14 3.75 C 247.47 4.69 242.97 5.47 238.19 4.83 C 234.84 2.97 231.40 2.85 227.66 2.79 C 235.50 0.93 244.32 2.27 252.14 3.75 Z" fill="#c4c4c4" stroke="#c4c4c4"/>
  <path d="M 282.23 2.25 C 275.96 3.49 269.22 2.96 262.81 3.64 C 268.26 0.58 276.15 2.38 282.23 2.25 Z" fill="#bfbfbf" stroke="#bfbfbf"/>
  <path d="M 282.23 2.25 C 284.66 2.02 287.26 1.82 289.69 2.17 C 287.85 4.77 292.90 9.20 294.88 8.19 C 297.88 4.78 296.79 6.25 299.02 9.02 C 301.87 5.71 304.02 3.86 308.13 2.20 C 308.65 2.35 309.17 2.54 309.67 2.76 C 310.72 9.48 316.06 13.19 314.88 20.97 C 311.35 19.61 309.17 15.83 305.03 15.03 C 307.61 18.50 316.07 23.21 313.36 28.36 C 310.38 35.32 313.15 42.20 314.67 49.16 C 315.66 59.40 317.46 69.18 315.37 79.38 C 314.11 83.56 314.08 87.80 313.42 92.07 C 310.81 89.76 309.22 90.26 306.05 90.67 C 307.54 86.51 308.87 86.51 313.10 86.31 C 311.27 84.37 308.87 84.84 311.65 82.18 C 308.44 81.75 307.91 82.40 306.63 79.27 C 301.52 78.29 300.13 78.12 296.33 74.40 C 294.98 76.58 294.25 78.07 294.30 80.70 C 290.42 81.09 287.03 80.28 283.63 78.38 C 279.26 76.62 286.88 73.16 282.97 69.35 C 280.40 70.44 277.95 71.56 275.13 71.85 C 274.89 68.43 275.21 69.65 277.92 69.42 C 281.21 67.27 282.05 67.20 285.97 67.79 C 284.62 66.69 283.27 65.62 282.09 64.33 C 278.30 67.08 277.89 68.50 272.99 66.47 C 276.96 65.82 277.85 65.86 279.63 62.13 C 278.11 61.05 276.45 60.19 274.94 59.08 C 276.30 57.68 277.72 56.30 279.24 55.06 C 278.96 58.80 286.25 57.62 288.89 59.98 C 285.48 54.64 291.39 59.06 288.55 54.59 C 286.35 52.38 293.10 54.44 293.99 53.92 C 291.77 51.82 289.56 50.01 288.12 47.25 C 283.85 48.68 282.84 52.77 278.23 54.24 C 275.50 57.47 271.39 54.00 276.66 52.55 C 274.85 51.38 273.04 50.28 271.09 49.39 C 269.29 45.97 267.80 42.52 268.01 38.57 C 272.46 40.18 275.52 32.49 277.73 29.62 C 279.39 27.53 277.83 27.53 276.40 26.19 C 274.94 31.58 271.03 37.69 264.64 36.47 C 262.79 33.42 260.04 32.44 262.68 37.00 C 259.47 37.54 258.97 37.19 257.89 40.65 C 260.29 40.48 263.98 36.95 262.79 41.68 C 259.10 42.58 256.58 43.02 253.05 41.33 C 253.69 42.52 254.37 43.67 254.94 44.90 C 253.16 44.37 244.65 44.42 250.48 42.63 C 248.36 39.09 248.70 36.05 243.79 35.29 C 238.41 33.32 248.13 35.00 247.78 33.07 C 244.08 32.73 240.58 32.92 237.15 34.43 C 240.56 35.67 240.92 36.45 237.90 38.55 C 237.41 42.62 236.72 40.10 234.81 38.62 C 231.98 41.89 227.93 34.63 225.29 33.27 C 226.12 33.07 226.96 32.87 227.80 32.67 C 225.31 29.86 221.84 29.87 219.27 27.31 C 222.62 26.70 225.53 25.19 228.68 24.00 C 228.50 25.68 228.13 27.30 227.68 28.92 C 229.31 29.44 230.99 29.80 232.69 29.94 C 232.99 28.42 230.62 23.12 233.68 24.47 C 236.18 25.38 235.55 22.24 236.78 20.85 C 238.86 22.70 239.68 25.63 242.98 24.92 C 245.10 24.89 249.91 23.14 249.90 26.74 C 246.63 27.12 240.37 24.39 238.93 28.47 C 242.62 28.13 245.71 29.10 249.25 29.89 C 249.15 25.06 257.21 31.13 257.80 28.93 C 257.64 24.23 261.14 28.45 264.59 26.73 C 268.26 31.44 265.73 25.56 267.32 23.18 C 266.52 21.19 265.59 19.37 265.20 17.23 C 262.80 16.46 260.59 16.71 258.13 16.75 C 259.00 15.83 259.92 14.96 260.81 14.05 C 258.62 13.97 256.42 13.97 254.22 14.02 C 257.11 16.52 257.67 18.32 257.62 22.03 C 254.05 21.69 253.30 17.38 249.85 20.67 C 249.77 17.98 251.24 16.48 252.55 14.37 C 250.96 13.35 249.33 12.39 247.77 11.31 C 249.74 9.40 254.12 8.85 255.06 6.36 C 250.96 6.05 248.40 8.52 245.68 11.20 C 241.89 12.69 243.93 11.42 244.69 9.07 C 241.60 8.44 240.34 6.98 238.19 4.83 C 242.97 5.47 247.47 4.69 252.14 3.75 C 254.05 4.37 255.94 5.26 257.90 5.73 C 259.73 4.18 260.24 3.34 262.81 3.64 C 269.22 2.96 275.96 3.49 282.23 2.25 Z" fill="#6b6b6b" stroke="#6b6b6b"/>
  <path d="M 289.69 2.17 C 291.78 2.83 293.82 3.66 295.95 4.23 C 294.79 5.77 294.39 6.20 294.88 8.19 C 292.90 9.20 287.85 4.77 289.69 2.17 Z" fill="#434343" stroke="#434343"/>
  <path d="M 308.13 2.20 C 304.02 3.86 301.87 5.71 299.02 9.02 C 296.79 6.25 297.88 4.78 294.88 8.19 C 294.39 6.20 294.79 5.77 295.95 4.23 C 299.98 3.42 304.09 1.58 308.13 2.20 Z" fill="#b1b1b1" stroke="#b1b1b1"/>
  <path d="M 329.33 2.07 C 327.92 4.47 323.87 4.44 321.50 6.19 C 318.82 4.07 319.49 9.16 319.04 10.63 C 318.59 11.52 318.14 12.41 317.68 13.30 C 315.36 9.10 315.33 6.98 317.74 2.82 C 321.21 1.38 325.64 2.11 329.33 2.07 Z" fill="#979797" stroke="#979797"/>
  <path d="M 329.33 2.07 L 331.08 2.11 C 332.47 3.63 332.69 3.18 331.42 5.01 C 334.02 4.81 336.55 4.45 339.08 3.87 C 339.46 4.49 339.82 5.11 340.16 5.75 C 335.84 11.06 341.42 13.81 339.64 19.64 C 338.85 23.84 337.69 27.96 336.79 32.14 C 333.16 32.83 330.58 30.31 326.81 31.70 C 321.54 33.20 320.40 25.93 320.25 22.24 C 321.66 19.22 322.00 12.69 319.04 10.63 C 319.49 9.16 318.82 4.07 321.50 6.19 C 323.87 4.44 327.92 4.47 329.33 2.07 Z" fill="#545454" stroke="#545454"/>
  <path d="M 331.08 2.11 C 333.74 2.36 336.66 2.69 339.08 3.87 C 336.55 4.45 334.02 4.81 331.42 5.01 C 332.69 3.18 332.47 3.63 331.08 2.11 Z" fill="#838383"/>
  <path d="M 123.05 3.82 C 129.74 6.00 135.40 3.81 142.11 3.96 C 144.74 8.22 138.67 5.89 136.11 7.73 C 133.50 6.98 128.61 4.01 129.81 9.15 C 135.80 12.83 123.25 8.40 125.68 13.39 C 127.25 17.72 128.72 12.69 132.18 15.80 C 128.67 18.01 128.41 18.44 127.78 22.58 C 126.21 20.96 124.47 20.40 122.47 19.55 C 120.87 17.17 121.60 15.31 118.11 15.47 C 119.52 10.41 121.95 11.14 115.81 8.58 C 116.61 4.44 110.21 8.67 114.71 4.31 C 117.71 4.60 119.96 2.79 123.05 3.82 Z" fill="#787878"/>
  <path d="M 170.79 3.22 C 175.30 2.94 179.69 2.92 184.20 3.21 C 177.72 6.43 170.93 7.35 163.74 8.87 C 164.07 5.31 158.05 8.48 155.96 7.86 C 158.81 5.85 162.37 4.81 165.75 4.15 C 166.99 7.72 173.25 4.28 176.83 4.81 C 176.04 3.54 172.33 3.95 170.79 3.22 Z" fill="#a3a3a3" stroke="#a3a3a3"/>
  <path d="M 195.20 3.08 C 196.56 3.25 197.91 3.45 199.26 3.68 C 194.75 6.28 189.30 8.94 183.99 8.93 C 186.28 7.65 188.71 6.65 191.07 5.44 C 192.49 4.73 193.85 3.91 195.20 3.08 Z" fill="#b3b3b3" stroke="#b3b3b3"/>
  <path d="M 227.66 2.79 C 231.40 2.85 234.84 2.97 238.19 4.83 C 240.34 6.98 241.60 8.44 244.69 9.07 C 243.93 11.42 241.89 12.69 245.68 11.20 C 246.37 11.24 247.07 11.28 247.77 11.31 C 249.33 12.39 250.96 13.35 252.55 14.37 C 251.24 16.48 249.77 17.98 249.85 20.67 C 253.30 17.38 254.05 21.69 257.62 22.03 C 257.67 18.32 257.11 16.52 254.22 14.02 C 256.42 13.97 258.62 13.97 260.81 14.05 C 259.92 14.96 259.00 15.83 258.13 16.75 C 260.59 16.71 262.80 16.46 265.20 17.23 C 265.59 19.37 266.52 21.19 267.32 23.18 C 265.73 25.56 268.26 31.44 264.59 26.73 C 261.14 28.45 257.64 24.23 257.80 28.93 C 257.21 31.13 249.15 25.06 249.25 29.89 C 245.71 29.10 242.62 28.13 238.93 28.47 C 240.37 24.39 246.63 27.12 249.90 26.74 C 249.91 23.14 245.10 24.89 242.98 24.92 C 239.68 25.63 238.86 22.70 236.78 20.85 C 235.55 22.24 236.18 25.38 233.68 24.47 C 230.62 23.12 232.99 28.42 232.69 29.94 C 230.99 29.80 229.31 29.44 227.68 28.92 C 228.13 27.30 228.50 25.68 228.68 24.00 C 225.53 25.19 222.62 26.70 219.27 27.31 C 221.84 29.87 225.31 29.86 227.80 32.67 C 226.96 32.87 226.12 33.07 225.29 33.27 C 227.93 34.63 231.98 41.89 234.81 38.62 C 236.72 40.10 237.41 42.62 237.90 38.55 C 240.92 36.45 240.56 35.67 237.15 34.43 C 240.58 32.92 244.08 32.73 247.78 33.07 C 248.13 35.00 238.41 33.32 243.79 35.29 C 248.70 36.05 248.36 39.09 250.48 42.63 C 244.65 44.42 253.16 44.37 254.94 44.90 C 254.37 43.67 253.69 42.52 253.05 41.33 C 256.58 43.02 259.10 42.58 262.79 41.68 C 263.98 36.95 260.29 40.48 257.89 40.65 C 258.97 37.19 259.47 37.54 262.68 37.00 C 260.04 32.44 262.79 33.42 264.64 36.47 C 271.03 37.69 274.94 31.58 276.40 26.19 C 277.83 27.53 279.39 27.53 277.73 29.62 C 275.52 32.49 272.46 40.18 268.01 38.57 C 267.80 42.52 269.29 45.97 271.09 49.39 C 265.39 51.72 269.01 43.24 264.29 42.97 C 266.23 47.13 262.06 47.24 266.80 51.05 C 262.60 54.05 260.65 49.92 257.78 50.72 C 257.43 54.40 255.62 57.45 252.11 58.93 C 250.49 55.66 252.44 53.39 248.70 50.84 C 248.72 53.62 248.53 54.24 246.35 55.98 C 248.33 51.07 241.79 48.57 241.34 54.32 C 239.83 56.89 244.76 54.16 243.79 56.04 C 243.38 59.33 239.41 56.16 237.84 58.86 C 234.37 60.48 240.95 65.59 235.99 64.40 C 233.28 63.44 225.02 63.40 229.78 58.88 C 228.55 54.17 222.85 56.34 223.58 52.54 C 221.17 52.50 214.71 53.24 213.62 51.21 C 214.33 46.82 210.64 50.54 209.60 52.04 C 213.02 57.24 206.04 55.24 211.74 59.91 C 207.94 58.89 204.85 60.81 201.11 59.62 C 198.10 60.98 197.21 60.19 196.17 57.24 C 194.29 57.23 192.38 57.76 190.55 58.19 C 192.21 61.64 189.74 64.77 185.86 63.42 C 180.68 64.38 176.41 66.70 171.15 63.56 C 172.22 62.85 174.06 63.28 173.41 61.55 C 172.67 56.63 168.72 53.13 167.33 48.25 C 162.91 52.82 165.47 42.92 167.50 43.14 C 167.59 45.57 167.88 47.13 169.77 48.83 C 172.08 45.33 176.91 52.98 177.92 48.45 C 178.15 44.19 176.24 42.72 171.98 42.56 C 177.05 41.15 176.96 40.09 179.63 45.05 C 180.06 41.75 179.53 39.83 182.63 38.00 C 185.27 36.84 182.00 33.54 181.38 31.90 C 183.16 32.15 184.93 32.53 186.71 32.80 C 185.78 28.27 177.98 22.94 174.35 27.37 C 170.30 29.90 166.87 34.42 162.39 35.98 C 162.50 33.32 162.48 30.75 162.32 28.09 C 164.01 28.93 164.69 29.95 165.52 31.60 C 168.78 29.03 171.75 26.27 175.55 24.46 C 179.82 22.08 182.07 16.08 187.74 17.51 C 189.66 17.66 186.29 14.63 188.32 14.55 C 192.00 14.94 194.88 13.28 195.88 9.64 C 198.23 8.90 200.13 7.54 202.19 6.25 C 204.40 5.54 204.37 9.08 203.26 10.23 C 207.24 12.41 211.55 14.31 215.67 16.22 C 214.88 14.93 214.01 13.73 213.28 12.40 C 217.62 12.13 213.31 9.57 213.21 7.13 C 217.13 5.93 220.80 7.27 224.89 5.40 C 227.85 7.84 225.81 7.80 224.06 9.97 C 227.56 11.90 230.82 4.78 228.29 3.59 L 227.66 2.79 Z" fill="#7a7a7a" stroke="#7a7a7a"/>
  <path d="M 309.67 2.76 C 313.05 4.48 314.36 4.18 317.74 2.82 C 315.33 6.98 315.36 9.10 317.68 13.30 C 319.52 16.24 319.33 18.70 319.29 22.06 C 318.96 23.27 318.62 24.47 318.28 25.67 C 312.11 32.28 314.25 38.50 316.04 46.37 C 317.15 51.03 316.24 58.92 320.03 62.14 C 318.11 70.97 317.57 79.83 315.57 88.66 C 315.73 98.14 315.85 107.86 317.27 117.25 C 317.33 118.61 317.46 119.94 317.67 121.28 C 318.28 132.07 315.84 143.21 316.75 154.12 C 317.82 160.03 315.92 165.42 316.12 171.24 C 316.00 174.44 319.66 177.32 321.17 180.04 C 325.38 178.45 329.33 172.88 332.61 169.62 C 336.66 164.75 336.75 157.04 337.24 151.04 C 338.48 143.77 338.53 135.52 335.98 128.52 C 335.22 126.38 334.24 124.50 334.16 122.18 C 338.97 115.52 339.15 109.62 335.79 102.30 C 332.22 93.73 336.68 86.72 334.72 78.12 C 334.49 72.74 335.35 67.34 334.96 61.91 C 335.34 60.65 337.61 51.89 334.46 55.05 C 333.24 50.90 336.25 49.06 337.41 45.40 C 338.89 41.32 337.55 36.26 336.79 32.14 C 337.69 27.96 338.85 23.84 339.64 19.64 C 341.42 13.81 335.84 11.06 340.16 5.75 C 339.42 7.47 339.58 8.71 340.90 10.05 C 341.04 13.70 341.05 17.35 340.80 20.99 C 339.38 22.95 339.62 24.80 340.17 27.03 C 342.22 38.29 340.30 48.79 339.83 59.96 C 338.38 61.58 338.63 63.12 339.24 65.05 C 339.06 66.29 338.87 67.53 338.67 68.77 C 337.73 73.09 337.46 77.96 338.71 82.24 C 343.57 91.97 339.07 99.90 340.09 109.94 C 339.62 111.63 339.50 112.81 340.90 114.06 C 340.91 115.35 340.91 116.64 340.91 117.94 C 339.51 119.16 339.64 120.38 340.05 122.04 C 339.76 123.57 339.05 124.77 339.77 126.29 C 341.82 131.02 340.91 136.89 340.80 141.99 C 339.36 143.95 339.66 145.79 340.18 148.01 C 339.96 151.35 339.95 154.64 340.19 157.99 C 339.66 160.22 339.34 162.07 340.82 164.01 C 341.02 167.02 341.02 170.01 340.80 173.02 C 339.23 175.34 339.67 177.48 340.37 180.01 C 338.85 184.10 335.20 188.62 330.89 189.84 C 324.67 189.81 319.00 191.62 314.02 187.21 C 307.09 192.56 301.80 188.45 294.23 189.20 C 290.98 189.00 287.90 188.67 284.77 189.80 C 281.88 190.13 279.88 189.85 277.18 188.84 C 274.22 187.57 271.76 187.79 268.77 188.77 C 262.58 189.38 256.65 188.43 250.63 189.56 C 236.07 191.33 222.31 188.43 208.23 189.79 C 203.44 188.50 197.60 188.60 192.77 189.74 C 183.87 190.28 174.89 189.91 165.97 190.00 C 162.44 190.43 162.16 185.37 158.47 187.51 C 154.97 189.76 151.59 191.06 147.47 189.41 C 141.68 186.27 135.06 188.71 129.18 190.25 C 121.37 189.56 113.71 190.69 105.95 189.23 C 94.77 190.57 83.24 190.00 71.98 189.77 C 69.70 188.32 67.53 188.70 65.02 189.15 C 53.64 190.35 42.43 189.80 31.02 190.19 C 28.47 187.66 27.29 183.93 23.28 187.30 C 17.26 191.55 6.24 188.54 2.74 181.96 C 3.30 179.45 3.71 177.32 2.20 175.04 C 1.83 173.67 1.43 172.34 1.31 170.91 C 7.12 170.36 0.95 180.13 6.61 181.39 C 14.39 184.59 18.78 176.20 21.21 170.32 C 25.44 161.89 22.80 153.66 21.65 144.47 C 16.32 145.06 20.35 141.81 21.76 139.78 C 22.48 134.74 22.28 129.95 21.96 124.91 C 21.92 122.00 21.99 119.10 22.38 116.21 C 24.54 105.05 20.73 93.45 21.83 81.98 C 21.80 79.64 22.42 79.78 20.29 80.70 C 16.48 82.85 12.48 83.56 12.95 88.92 C 11.04 92.29 13.31 83.07 10.23 87.63 C 7.48 88.72 4.50 91.15 1.49 91.14 C 1.68 89.79 1.84 88.43 1.98 87.08 L 2.89 87.21 C 7.21 88.99 9.94 86.23 11.89 82.69 C 19.53 80.66 21.99 78.15 19.50 70.18 C 21.98 64.26 19.81 73.71 21.92 73.79 C 21.75 71.77 23.14 66.74 20.42 66.16 C 21.21 59.12 22.35 52.60 21.96 45.47 C 25.30 39.78 21.47 33.68 24.25 28.86 C 24.56 29.84 24.87 30.81 25.17 31.79 C 25.13 40.97 23.19 49.83 23.97 59.00 C 23.85 66.20 25.34 72.54 24.25 79.78 C 24.08 80.77 23.90 81.77 23.71 82.77 C 22.90 87.37 21.84 94.49 24.45 98.58 C 29.71 104.66 30.31 112.04 29.92 119.75 C 28.10 116.01 29.20 106.73 24.46 102.80 C 24.94 106.48 25.42 110.20 26.29 113.81 C 25.75 117.80 25.01 121.75 24.67 125.77 C 22.64 136.43 25.09 145.61 25.26 156.06 C 27.33 152.56 26.93 149.06 27.14 145.18 L 28.35 146.14 C 28.27 154.90 26.18 163.41 25.92 172.12 C 25.75 178.04 30.02 181.91 34.79 184.45 C 38.21 185.41 39.99 182.18 42.32 185.43 C 47.71 182.96 52.45 186.61 57.92 183.95 C 62.12 182.59 63.25 178.96 61.46 175.14 C 63.02 173.09 63.08 176.00 64.09 177.01 C 64.63 178.85 61.97 185.08 64.65 185.23 C 69.24 185.65 74.03 185.16 78.84 185.89 C 82.59 182.43 87.02 185.07 91.84 182.76 C 95.67 182.38 99.17 178.91 97.43 174.98 C 96.85 172.74 95.76 171.13 96.85 168.84 C 98.64 173.04 100.15 181.23 104.89 182.91 C 106.56 181.08 105.18 178.24 105.20 175.97 C 107.09 177.72 107.32 179.99 108.75 182.18 C 112.29 182.63 114.87 184.67 118.12 185.82 C 128.53 187.65 139.62 181.80 148.96 178.04 C 147.12 180.87 140.99 182.33 147.36 184.14 C 153.55 182.00 158.87 182.56 163.49 177.53 C 163.72 173.94 162.45 171.34 164.95 168.08 C 164.99 170.07 165.15 172.05 165.40 174.02 C 166.57 178.31 164.62 179.00 162.12 181.89 C 167.72 184.16 173.35 189.32 179.20 185.28 C 185.02 186.39 193.17 185.99 198.45 182.60 C 207.69 180.66 213.52 186.54 222.06 186.04 C 228.83 185.67 235.06 186.38 240.10 181.24 C 246.36 182.50 252.45 181.88 258.75 181.80 C 263.17 183.49 267.14 181.39 271.68 182.26 C 276.55 182.46 280.48 184.95 285.16 185.83 C 295.32 185.89 303.06 180.61 307.82 171.81 C 309.51 170.27 310.59 162.71 311.44 168.93 C 314.88 165.65 314.81 158.37 314.79 153.92 C 313.58 155.85 313.01 157.96 312.15 160.05 C 311.39 153.24 314.25 146.19 314.90 140.02 C 314.94 133.59 316.55 127.46 316.02 120.99 C 315.32 111.49 312.76 101.58 313.42 92.07 C 314.08 87.80 314.11 83.56 315.37 79.38 C 317.46 69.18 315.66 59.40 314.67 49.16 C 313.15 42.20 310.38 35.32 313.36 28.36 C 316.07 23.21 307.61 18.50 305.03 15.03 C 309.17 15.83 311.35 19.61 314.88 20.97 C 316.06 13.19 310.72 9.48 309.67 2.76 Z" fill="#383838" stroke="#383838"/>
  <path d="M 35.93 4.07 C 34.13 6.55 31.82 8.06 31.08 11.19 C 29.13 12.28 28.95 12.49 26.92 11.52 C 26.10 13.29 25.71 15.29 25.14 17.16 C 25.13 15.13 25.05 13.10 24.98 11.07 C 28.13 6.63 30.52 5.06 35.93 4.07 Z" fill="#6f6f6f" stroke="#6f6f6f"/>
  <path d="M 255.06 6.36 C 254.12 8.85 249.74 9.40 247.77 11.31 C 247.07 11.28 246.37 11.24 245.68 11.20 C 248.40 8.52 250.96 6.05 255.06 6.36 Z" fill="#b9b9b9" stroke="#b9b9b9"/>
  <path d="M 340.16 5.75 C 341.35 7.16 341.30 8.33 340.90 10.05 C 339.58 8.71 339.42 7.47 340.16 5.75 Z" fill="#a6a6a6" stroke="#a6a6a6"/>
  <path d="M 19.92 12.13 C 20.97 16.64 21.08 21.71 22.99 25.92 C 23.42 26.90 23.84 27.88 24.25 28.86 C 21.47 33.68 25.30 39.78 21.96 45.47 C 22.35 52.60 21.21 59.12 20.42 66.16 C 23.14 66.74 21.75 71.77 21.92 73.79 C 19.81 73.71 21.98 64.26 19.50 70.18 C 21.99 78.15 19.53 80.66 11.89 82.69 C 9.94 86.23 7.21 88.99 2.89 87.21 C 3.04 81.78 3.14 76.29 2.78 70.86 L 2.78 70.12 C 2.97 68.04 3.19 65.95 3.35 63.86 C 3.89 65.93 4.47 67.98 5.28 69.96 C 7.10 67.36 8.68 65.16 11.02 62.98 C 14.64 58.17 3.77 58.54 3.34 63.01 C 2.69 58.70 6.36 56.26 5.93 52.00 C 4.47 53.94 3.34 56.02 2.20 58.15 C 2.12 54.83 1.54 51.57 1.22 48.27 C 3.26 45.86 3.59 43.00 4.04 39.98 C 10.47 39.04 5.35 49.63 11.26 46.35 C 12.05 41.79 15.53 35.84 20.71 35.72 C 16.97 34.32 18.95 28.36 21.04 33.98 C 19.89 29.61 19.42 25.74 19.34 21.21 C 14.84 15.98 10.74 21.39 4.97 16.45 C 8.19 16.16 18.05 13.43 13.46 8.99 C 19.59 5.77 15.13 14.49 19.92 12.13 Z" fill="#6f6f6f" stroke="#6f6f6f"/>
  <path d="M 107.43 9.87 C 108.21 12.54 106.04 12.92 104.42 14.46 C 99.09 18.82 96.43 24.35 93.25 30.24 L 92.85 28.00 C 96.54 20.43 100.60 14.90 107.43 9.87 Z" fill="#9c9c9c" stroke="#9c9c9c"/>
  <path d="M 26.92 11.52 C 28.95 12.49 29.13 12.28 31.08 11.19 C 26.73 17.26 25.53 21.57 24.25 28.86 C 23.84 27.88 23.42 26.90 22.99 25.92 C 23.63 22.98 24.34 20.06 25.14 17.16 C 25.71 15.29 26.10 13.29 26.92 11.52 Z" fill="#9d9d9d" stroke="#9d9d9d"/>
  <path d="M 319.04 10.63 C 322.00 12.69 321.66 19.22 320.25 22.24 L 319.29 22.06 C 319.33 18.70 319.52 16.24 317.68 13.30 C 318.14 12.41 318.59 11.52 319.04 10.63 Z" fill="#8a8a8a" stroke="#8a8a8a"/>
  <path d="M 332.08 11.21 C 333.67 15.84 324.71 18.02 323.85 13.53 C 325.53 13.68 327.19 13.94 328.88 13.94 C 330.10 13.30 331.05 12.12 332.08 11.21 Z" fill="#2d2d2d" stroke="#2d2d2d"/>
  <path d="M 36.26 14.35 C 40.71 18.41 43.63 11.49 46.98 15.57 C 44.36 16.45 42.56 15.21 43.03 18.90 C 44.92 23.41 47.68 22.04 51.09 20.23 C 55.56 24.05 58.62 21.78 57.69 28.82 C 55.28 25.85 54.79 26.56 51.22 27.21 C 51.87 29.70 53.88 30.14 51.56 32.61 C 50.07 35.83 58.44 35.56 55.05 39.03 C 54.48 42.62 48.19 39.71 49.86 37.80 C 53.39 33.28 41.56 35.68 45.44 38.98 C 43.42 42.91 38.53 38.16 34.73 39.33 C 29.96 39.67 33.02 29.75 33.42 35.99 C 33.68 37.60 40.02 37.99 41.60 36.95 C 40.53 33.72 38.63 33.52 42.42 31.36 C 44.64 27.32 49.50 28.50 51.10 24.57 C 47.28 25.10 43.85 23.29 40.17 24.44 C 39.54 23.46 39.83 20.32 38.23 20.69 C 34.99 21.50 37.16 16.32 36.26 14.35 Z" fill="#5e5e5e"/>
  <path d="M 340.80 20.99 C 341.33 23.22 341.66 25.08 340.17 27.03 C 339.62 24.80 339.38 22.95 340.80 20.99 Z" fill="#787878" stroke="#787878"/>
  <path d="M 319.29 22.06 L 320.25 22.24 C 320.40 25.93 321.54 33.20 326.81 31.70 C 330.58 30.31 333.16 32.83 336.79 32.14 C 337.55 36.26 338.89 41.32 337.41 45.40 C 336.25 49.06 333.24 50.90 334.46 55.05 C 333.28 58.42 332.64 61.37 333.12 64.99 C 333.76 63.98 334.37 62.95 334.96 61.91 C 335.35 67.34 334.49 72.74 334.72 78.12 C 336.68 86.72 332.22 93.73 335.79 102.30 C 339.15 109.62 338.97 115.52 334.16 122.18 C 334.16 119.93 333.82 118.96 333.14 119.27 C 331.09 119.52 332.13 126.44 329.44 122.53 C 327.71 119.59 326.06 124.20 325.74 125.67 C 324.69 125.21 323.92 124.07 323.12 123.27 C 325.62 119.70 324.13 118.69 322.55 115.18 C 320.89 116.49 319.88 118.16 318.68 119.87 L 317.67 121.28 C 317.46 119.94 317.33 118.61 317.27 117.25 C 320.27 103.67 314.07 91.52 319.16 78.02 C 323.42 82.07 327.06 79.70 328.91 75.13 C 326.48 74.34 325.12 77.69 323.26 78.90 C 322.09 76.88 322.85 74.82 319.73 75.54 C 320.05 71.08 320.91 66.80 321.71 62.42 L 320.03 62.14 C 316.24 58.92 317.15 51.03 316.04 46.37 C 318.32 42.70 315.05 39.03 317.92 36.07 C 319.27 34.76 317.31 35.19 316.49 34.63 C 317.34 31.53 318.94 28.99 318.28 25.67 C 318.62 24.47 318.96 23.27 319.29 22.06 Z" fill="#696969" stroke="#696969"/>
  <path d="M 2.20 30.29 C 2.36 29.15 2.51 28.02 2.67 26.89 C 7.17 24.96 4.65 29.67 2.20 30.29 Z" fill="#bababa" stroke="#bababa"/>
  <path d="M 318.28 25.67 C 318.94 28.99 317.34 31.53 316.49 34.63 C 317.31 35.19 319.27 34.76 317.92 36.07 C 315.05 39.03 318.32 42.70 316.04 46.37 C 314.25 38.50 312.11 32.28 318.28 25.67 Z" fill="#a2a2a2" stroke="#a2a2a2"/>
  <path d="M 92.85 28.00 L 93.25 30.24 C 91.48 36.30 91.04 42.39 90.73 48.66 C 88.45 50.07 90.06 47.12 89.79 45.97 C 90.07 39.61 89.69 33.82 92.85 28.00 Z" fill="#454545" stroke="#454545"/>
  <path d="M 25.17 31.79 C 26.07 34.13 26.07 36.53 26.08 39.00 C 24.74 52.13 26.11 65.00 26.17 78.17 C 26.88 82.17 26.72 84.38 25.27 88.20 C 25.17 85.35 24.99 82.54 24.25 79.78 C 25.34 72.54 23.85 66.20 23.97 59.00 C 23.19 49.83 25.13 40.97 25.17 31.79 Z" fill="#8e8e8e" stroke="#8e8e8e"/>
  <path d="M 328.75 34.11 C 332.92 35.48 323.02 33.98 325.48 36.52 C 328.80 38.26 330.66 37.30 329.51 41.90 C 327.03 43.44 325.89 44.28 322.91 43.52 C 324.30 43.00 325.68 42.50 326.99 41.81 C 325.63 39.82 320.88 40.38 322.92 36.99 C 324.16 32.74 324.84 32.90 328.75 34.11 Z" fill="#434343" stroke="#434343"/>
  <path d="M 1.69 33.78 C 5.29 34.70 2.28 37.15 4.04 39.98 C 3.59 43.00 3.26 45.86 1.22 48.27 C 0.67 43.33 1.25 38.72 1.69 33.78 Z" fill="#aeaeae" stroke="#aeaeae"/>
  <path d="M 329.51 41.90 C 330.29 46.34 316.67 46.90 322.91 43.52 C 325.89 44.28 327.03 43.44 329.51 41.90 Z" fill="#989898" stroke="#989898"/>
  <path d="M 264.29 42.97 C 269.01 43.24 265.39 51.72 271.09 49.39 C 273.04 50.28 274.85 51.38 276.66 52.55 C 271.39 54.00 275.50 57.47 278.23 54.24 C 282.84 52.77 283.85 48.68 288.12 47.25 C 289.56 50.01 291.77 51.82 293.99 53.92 C 293.10 54.44 286.35 52.38 288.55 54.59 C 291.39 59.06 285.48 54.64 288.89 59.98 C 286.25 57.62 278.96 58.80 279.24 55.06 C 277.72 56.30 276.30 57.68 274.94 59.08 C 276.45 60.19 278.11 61.05 279.63 62.13 C 277.85 65.86 276.96 65.82 272.99 66.47 C 277.89 68.50 278.30 67.08 282.09 64.33 C 283.27 65.62 284.62 66.69 285.97 67.79 C 282.05 67.20 281.21 67.27 277.92 69.42 C 275.21 69.65 274.89 68.43 275.13 71.85 C 277.95 71.56 280.40 70.44 282.97 69.35 C 286.88 73.16 279.26 76.62 283.63 78.38 C 287.03 80.28 290.42 81.09 294.30 80.70 C 294.25 78.07 294.98 76.58 296.33 74.40 C 300.13 78.12 301.52 78.29 306.63 79.27 C 307.91 82.40 308.44 81.75 311.65 82.18 C 308.87 84.84 311.27 84.37 313.10 86.31 C 308.87 86.51 307.54 86.51 306.05 90.67 C 309.22 90.26 310.81 89.76 313.42 92.07 C 312.76 101.58 315.32 111.49 316.02 120.99 C 316.55 127.46 314.94 133.59 314.90 140.02 C 314.25 146.19 311.39 153.24 312.15 160.05 C 313.01 157.96 313.58 155.85 314.79 153.92 C 314.81 158.37 314.88 165.65 311.44 168.93 C 310.59 162.71 309.51 170.27 307.82 171.81 C 303.06 180.61 295.32 185.89 285.16 185.83 C 280.48 184.95 276.55 182.46 271.68 182.26 C 267.14 181.39 263.17 183.49 258.75 181.80 C 252.45 181.88 246.36 182.50 240.10 181.24 C 235.06 186.38 228.83 185.67 222.06 186.04 C 217.52 183.44 220.51 180.40 219.03 176.30 C 216.65 180.28 212.62 175.99 213.41 180.77 C 211.29 180.48 209.18 180.05 207.07 179.67 C 208.77 178.12 217.45 172.09 210.67 172.45 C 209.43 172.66 211.66 169.53 211.67 168.95 C 208.71 169.97 205.86 171.31 203.03 172.65 C 204.65 172.87 206.28 173.04 207.89 173.32 C 208.24 176.10 205.88 179.03 204.10 180.95 C 202.86 179.35 203.46 177.79 203.42 175.94 C 200.74 176.63 198.29 177.78 195.53 178.17 C 196.03 176.80 196.51 175.45 196.77 174.02 C 195.19 174.91 193.73 175.96 192.14 176.84 C 191.35 171.69 196.74 170.02 200.77 171.31 C 201.53 170.58 203.01 169.53 202.86 168.37 C 199.21 168.05 196.03 166.47 192.55 167.23 C 190.33 166.87 192.51 164.15 190.37 164.35 C 188.93 164.68 189.01 161.85 188.54 160.95 C 192.06 161.12 192.44 161.74 194.61 164.34 C 197.65 163.69 200.93 164.84 199.12 160.42 C 194.17 163.08 196.54 159.01 199.89 158.27 C 192.75 158.28 195.97 155.94 192.20 152.05 C 194.98 149.12 203.20 157.18 201.38 151.36 C 203.19 151.41 205.02 151.64 206.84 151.59 C 206.41 149.64 205.79 147.75 205.38 145.80 C 207.04 147.06 207.90 149.00 209.64 150.11 C 210.52 145.74 203.44 143.04 200.33 141.56 C 201.17 140.24 203.83 139.32 202.37 137.63 C 201.13 133.65 197.44 140.38 195.06 137.12 C 192.74 134.44 188.95 128.97 185.04 131.89 C 183.45 132.06 186.37 137.24 183.96 134.95 C 181.34 132.45 179.72 137.77 177.19 134.61 C 178.46 133.93 179.74 133.32 180.94 132.52 C 176.99 130.97 173.57 129.33 169.37 131.30 C 167.70 134.05 172.77 131.79 174.02 132.18 C 172.67 134.21 170.61 134.24 168.40 134.47 C 167.99 133.17 164.25 128.57 164.60 132.35 C 165.36 135.45 160.49 131.40 160.04 135.03 C 161.97 138.96 165.28 143.41 169.02 145.92 C 159.71 145.83 162.28 137.15 154.16 136.04 C 152.76 137.32 151.53 139.08 149.86 139.96 C 149.95 137.58 141.40 135.56 143.41 139.69 C 137.08 137.82 147.12 145.22 146.69 144.12 C 145.09 139.40 150.72 143.89 148.44 145.31 C 142.38 147.06 151.68 154.38 154.91 151.94 C 157.79 149.26 155.16 148.95 152.36 149.81 C 153.73 147.15 153.97 147.26 152.24 144.71 C 154.33 145.36 156.61 140.10 153.98 142.01 C 149.48 145.87 154.78 133.75 155.74 140.11 C 156.05 142.44 159.48 153.74 162.94 149.03 C 164.02 149.18 167.40 153.54 166.66 150.40 C 166.25 144.99 170.45 151.96 172.95 151.00 C 175.35 151.32 174.16 147.72 176.31 146.85 C 176.52 148.01 176.04 150.15 177.29 150.75 C 182.41 150.78 187.65 148.42 192.87 148.39 C 192.13 150.43 191.35 152.45 190.62 154.49 C 189.08 154.08 187.60 153.50 186.05 153.12 C 186.90 155.70 190.57 157.32 191.96 159.91 C 189.82 159.39 186.30 158.87 184.96 157.01 C 183.25 154.81 186.04 151.19 182.32 151.02 C 182.21 154.13 184.21 155.94 180.15 153.58 C 180.06 155.69 174.68 161.24 174.27 157.13 C 170.02 155.84 173.80 164.14 169.95 158.79 C 169.79 157.85 169.64 156.90 169.49 155.96 C 169.61 155.02 169.71 154.08 169.79 153.14 C 164.55 154.38 165.28 161.49 163.86 165.08 C 159.93 164.64 157.81 165.96 154.21 167.57 C 157.31 168.44 157.10 168.55 156.02 171.32 C 154.09 170.55 152.88 171.42 151.01 171.89 C 149.28 171.85 147.90 169.48 146.22 169.46 C 140.25 171.06 134.67 173.94 128.66 175.19 C 130.08 177.72 128.66 180.31 127.29 182.53 C 123.87 182.26 124.26 184.26 121.50 185.23 C 124.10 181.56 118.09 182.71 118.57 178.94 C 117.62 176.77 114.33 178.21 114.20 180.77 C 111.48 181.48 114.56 176.63 114.89 175.62 C 112.21 175.81 110.26 175.14 110.05 172.12 C 112.21 171.83 115.54 173.62 116.91 171.51 C 114.42 170.74 106.37 168.69 110.60 165.06 C 104.83 164.80 108.93 158.41 104.84 159.25 C 103.98 162.15 101.45 163.41 103.34 166.46 C 104.96 169.95 100.57 166.82 100.01 165.59 C 100.03 161.67 101.13 157.93 100.93 154.00 C 97.58 159.40 96.52 162.32 96.85 168.84 C 95.76 171.13 96.85 172.74 97.43 174.98 C 92.83 177.57 96.66 166.07 91.16 168.06 C 93.38 170.82 90.83 172.76 88.15 172.91 C 88.33 170.98 90.92 169.04 88.18 168.07 C 85.08 171.39 85.16 170.58 81.21 169.64 C 76.07 164.13 84.38 169.94 85.92 165.49 C 79.20 165.91 81.01 160.52 76.13 157.95 C 79.76 158.17 79.82 157.33 81.36 160.59 C 83.38 159.96 86.85 157.57 82.44 156.53 C 82.69 152.01 89.31 149.52 92.95 148.39 C 91.29 147.46 89.26 147.17 87.40 146.89 C 85.83 149.03 84.63 151.06 82.02 152.08 C 81.10 150.45 78.42 148.48 80.15 146.62 C 81.39 146.27 85.06 147.83 83.53 145.45 C 77.74 142.52 74.43 142.58 68.01 140.32 C 68.04 138.02 68.99 136.23 69.60 134.06 C 66.22 132.40 66.65 136.35 63.08 136.82 C 65.09 138.59 66.60 138.60 65.85 141.78 C 60.48 139.16 59.34 135.16 54.98 131.14 C 56.81 135.16 56.33 139.89 51.25 140.77 C 50.34 137.08 52.36 134.90 47.49 137.08 C 49.25 140.09 46.98 141.23 45.75 143.74 C 39.52 143.02 45.05 145.37 47.48 145.40 C 47.06 149.47 49.94 147.93 52.60 148.76 C 55.74 151.42 56.99 154.83 61.89 153.83 C 62.24 148.29 54.48 151.52 54.87 146.49 C 59.67 148.28 61.28 145.89 61.35 141.05 C 63.38 146.36 67.80 149.63 68.78 155.32 C 70.49 158.41 72.71 161.34 74.63 164.31 C 79.47 166.32 75.04 169.03 81.21 169.64 C 83.91 174.02 77.66 172.92 76.01 171.15 C 74.84 169.44 74.98 172.11 74.41 172.86 C 73.65 169.52 71.90 165.09 67.75 165.44 C 65.82 165.68 65.24 163.27 64.25 161.99 C 66.23 160.49 67.16 162.01 69.09 162.68 C 69.50 159.24 65.17 159.14 62.72 159.14 C 62.30 160.77 61.96 162.42 61.43 164.02 C 60.56 161.55 62.03 159.11 58.84 161.65 C 59.34 159.10 63.55 155.29 58.24 156.52 C 57.47 161.65 55.96 158.38 52.29 159.04 C 53.91 157.05 56.60 155.65 53.22 153.68 C 49.05 153.93 50.64 148.61 46.13 149.37 C 42.68 150.26 42.36 147.46 39.18 147.27 C 40.61 144.32 41.07 144.11 39.37 141.08 C 45.64 143.02 41.96 138.64 40.05 136.08 C 35.20 138.15 33.21 138.62 32.00 144.26 C 31.56 143.56 31.11 142.85 30.67 142.15 C 30.72 136.67 33.66 132.54 32.13 127.00 C 31.45 124.96 32.97 117.57 31.12 117.23 C 31.05 125.27 31.04 132.73 29.71 140.71 C 29.25 142.52 28.80 144.33 28.35 146.14 L 27.14 145.18 C 26.93 149.06 27.33 152.56 25.26 156.06 C 25.09 145.61 22.64 136.43 24.67 125.77 C 25.69 129.55 23.87 138.73 25.88 140.78 C 25.52 131.94 27.81 122.43 26.29 113.81 C 25.42 110.20 24.94 106.48 24.46 102.80 C 29.20 106.73 28.10 116.01 29.92 119.75 C 30.31 112.04 29.71 104.66 24.45 98.58 C 21.84 94.49 22.90 87.37 23.71 82.77 C 24.04 86.76 23.91 90.75 24.11 94.75 C 25.65 95.13 24.82 89.40 25.27 88.20 C 26.72 84.38 26.88 82.17 26.17 78.17 C 29.15 78.00 30.02 77.33 32.00 75.27 C 29.96 80.30 45.53 80.64 36.82 82.44 C 33.73 79.68 32.31 81.77 28.61 82.95 C 29.05 84.46 29.17 85.85 29.20 87.41 C 31.86 85.40 31.85 90.48 33.99 88.00 C 35.27 84.73 38.27 92.39 35.33 90.65 C 31.89 89.16 37.43 96.31 38.49 92.48 C 41.62 88.94 44.01 92.33 45.67 95.12 C 44.35 102.08 50.51 94.08 52.47 93.15 C 52.34 95.71 54.33 99.15 57.00 99.46 C 60.48 99.72 57.58 103.25 57.32 105.09 C 60.82 105.21 62.33 101.16 64.88 99.15 C 66.01 102.28 64.49 103.99 63.43 106.75 C 66.53 107.98 69.76 108.55 72.93 109.49 C 68.47 110.09 69.60 111.54 68.42 114.86 C 66.73 115.38 66.90 109.68 65.61 111.64 C 64.74 115.37 59.53 112.41 57.24 111.87 C 58.41 110.54 59.69 109.30 60.86 107.97 C 56.46 107.80 54.82 110.75 50.15 108.82 C 51.62 107.44 54.88 107.53 56.82 106.74 C 55.57 102.96 49.18 103.30 46.10 100.41 C 45.27 104.06 44.41 104.25 48.17 106.10 C 45.38 108.19 42.26 109.55 39.03 110.77 C 41.12 112.82 42.74 113.02 42.85 116.32 C 45.37 116.80 48.03 116.09 50.52 116.50 C 52.12 117.75 51.96 118.51 54.03 117.65 C 54.78 119.54 53.26 122.58 56.38 121.84 C 57.02 119.82 57.23 117.73 57.74 115.69 C 63.94 112.82 66.33 117.93 71.82 118.61 C 76.17 117.33 72.37 115.16 71.32 112.88 C 73.72 113.03 73.91 113.06 75.27 114.91 C 77.94 117.31 84.61 114.27 79.73 119.40 C 73.19 117.15 70.27 122.52 64.24 122.75 C 63.56 124.61 62.00 127.35 64.30 128.69 C 65.72 130.35 66.38 123.98 68.07 126.91 C 71.30 130.66 74.79 130.56 79.35 130.38 C 81.64 129.86 84.54 137.17 84.97 131.95 C 85.11 127.58 86.64 133.75 87.47 134.79 C 84.94 135.39 84.59 134.52 84.44 137.41 C 82.38 137.70 80.92 138.13 79.26 139.46 C 82.72 140.39 85.09 144.38 88.29 144.89 C 88.85 143.03 88.76 140.53 90.36 139.30 C 91.20 141.45 94.56 143.34 96.68 142.70 C 99.12 141.34 96.77 139.62 96.11 137.93 C 93.97 134.76 95.24 131.04 91.31 129.65 C 92.86 125.99 90.86 123.27 93.12 119.99 C 95.18 117.13 90.58 117.51 89.10 116.67 C 90.35 115.51 94.23 114.57 91.47 112.58 C 86.92 109.68 95.12 109.41 96.84 108.64 C 94.91 106.84 92.89 105.64 91.94 103.01 C 90.68 100.38 92.45 94.38 96.03 97.80 C 99.45 91.75 98.17 96.30 101.83 94.39 C 103.01 96.73 106.53 96.64 108.78 97.33 C 107.93 98.57 103.57 101.44 106.35 102.59 C 110.26 104.59 101.88 103.74 106.18 106.77 C 109.74 108.36 106.41 109.71 105.35 111.87 C 107.61 112.11 109.88 112.34 112.14 112.50 C 112.04 110.33 105.48 111.15 109.66 109.73 C 115.22 108.69 114.41 112.42 117.48 115.33 C 116.01 117.20 114.21 118.46 113.24 120.64 C 115.81 122.16 118.94 123.15 121.25 120.68 C 122.78 121.52 124.20 122.49 125.88 123.06 C 125.56 122.25 122.59 120.20 123.63 119.53 C 126.90 116.44 120.57 117.93 122.31 113.33 C 123.20 109.82 120.53 114.69 119.42 115.05 C 119.37 113.08 119.34 111.10 119.39 109.12 C 123.33 108.31 124.43 110.96 127.08 113.05 C 130.79 111.60 125.10 107.25 125.82 104.87 C 126.62 102.06 123.49 105.32 122.00 104.60 C 119.80 104.95 113.42 100.72 118.99 100.04 C 122.16 104.25 124.60 102.03 125.91 97.89 C 127.05 93.54 123.76 92.28 122.69 96.57 C 120.94 92.88 113.18 93.63 116.41 89.42 C 113.66 89.18 108.81 83.10 113.15 82.38 C 117.19 84.77 118.99 89.41 122.59 92.57 C 123.17 91.42 123.69 90.26 124.36 89.16 C 125.28 92.60 129.33 93.40 132.02 91.49 C 133.12 95.83 134.40 96.40 130.45 99.59 C 133.52 100.07 131.44 102.54 133.15 102.87 C 136.45 99.34 143.95 100.11 148.58 101.50 C 153.65 106.68 157.90 107.42 164.09 109.58 C 164.65 102.18 161.43 108.07 160.16 103.15 C 162.52 100.53 165.98 101.69 167.47 104.06 C 166.24 108.16 172.36 108.01 167.00 109.91 C 175.36 111.80 171.50 104.76 179.01 105.94 C 181.83 105.42 183.56 107.57 179.99 107.95 C 174.52 107.93 175.28 111.88 173.03 115.60 C 177.18 113.53 177.62 120.41 178.28 115.50 C 183.43 119.25 183.87 113.18 188.03 116.59 C 191.70 113.25 195.43 113.75 200.05 114.20 C 198.79 114.89 197.42 115.11 196.05 115.48 C 198.74 119.14 200.99 113.32 204.96 113.88 C 208.32 114.10 209.37 110.27 205.92 109.46 C 202.33 112.08 199.44 113.89 194.75 112.82 C 194.55 109.45 191.73 108.72 190.01 106.09 C 192.66 106.21 195.24 106.78 197.89 106.95 C 196.88 102.76 193.55 105.55 190.49 103.45 C 187.27 101.87 184.67 100.76 182.09 104.07 C 179.14 104.81 169.75 102.83 176.10 98.54 C 179.89 100.28 182.76 98.36 186.66 98.60 C 187.78 96.24 186.80 95.17 189.97 95.29 C 188.52 91.67 185.33 93.54 185.57 87.07 C 187.16 84.01 193.92 86.18 197.04 83.17 C 194.44 82.72 191.07 85.22 190.67 81.42 C 186.99 85.84 188.24 82.50 187.14 79.03 C 189.96 79.59 192.05 81.08 194.63 82.21 C 192.62 79.41 192.49 76.62 189.98 74.11 C 192.57 73.28 198.46 76.61 194.34 72.07 C 196.62 72.83 200.67 71.07 199.54 74.82 C 203.24 72.59 204.82 75.36 208.04 77.06 C 210.16 81.22 204.39 87.05 200.10 84.05 C 200.77 86.20 199.76 91.78 203.12 88.15 C 206.89 94.18 205.59 89.94 210.96 90.57 C 210.46 87.23 208.67 87.26 205.98 86.17 C 209.57 85.98 213.63 85.58 217.11 86.64 C 218.76 87.56 220.37 90.25 222.35 88.39 C 225.21 84.77 231.23 85.00 235.48 84.90 C 233.66 82.63 236.86 82.09 237.94 80.27 C 236.41 79.28 234.10 78.76 233.08 77.21 C 238.91 72.04 226.65 74.65 225.07 71.43 C 228.58 69.76 233.23 70.58 233.23 65.56 C 235.38 66.89 234.74 66.14 235.99 64.40 C 240.95 65.59 234.37 60.48 237.84 58.86 C 239.41 56.16 243.38 59.33 243.79 56.04 C 244.76 54.16 239.83 56.89 241.34 54.32 C 241.79 48.57 248.33 51.07 246.35 55.98 C 248.53 54.24 248.72 53.62 248.70 50.84 C 252.44 53.39 250.49 55.66 252.11 58.93 C 255.62 57.45 257.43 54.40 257.78 50.72 C 260.65 49.92 262.60 54.05 266.80 51.05 C 262.06 47.24 266.23 47.13 264.29 42.97 Z" fill="#6f6f6f" stroke="#6f6f6f"/>
  <path d="M 321.14 50.13 C 326.18 48.91 323.09 53.55 321.14 55.04 C 321.03 53.40 321.00 51.76 321.14 50.13 Z" fill="#363636" stroke="#363636"/>
  <path d="M 327.38 51.62 C 328.14 51.13 328.56 57.06 328.91 58.91 C 325.51 56.13 326.06 55.58 327.38 51.62 Z" fill="#393939" stroke="#393939"/>
  <path d="M 5.93 52.00 C 6.36 56.26 2.69 58.70 3.34 63.01 L 3.35 63.86 C 3.19 65.95 2.97 68.04 2.78 70.12 C -0.43 69.64 3.04 60.82 2.20 58.15 C 3.34 56.02 4.47 53.94 5.93 52.00 Z" fill="#aeaeae" stroke="#aeaeae"/>
  <path d="M 334.96 61.91 C 334.37 62.95 333.76 63.98 333.12 64.99 C 332.64 61.37 333.28 58.42 334.46 55.05 C 337.61 51.89 335.34 60.65 334.96 61.91 Z" fill="#9a9a9a" stroke="#9a9a9a"/>
  <path d="M 11.02 62.98 C 8.68 65.16 7.10 67.36 5.28 69.96 C 4.47 67.98 3.89 65.93 3.35 63.86 L 3.34 63.01 C 3.77 58.54 14.64 58.17 11.02 62.98 Z" fill="#505050" stroke="#505050"/>
  <path d="M 339.83 59.96 C 340.38 61.88 340.54 63.40 339.24 65.05 C 338.63 63.12 338.38 61.58 339.83 59.96 Z" fill="#a3a3a3" stroke="#a3a3a3"/>
  <path d="M 15.17 61.16 C 18.87 59.88 16.27 67.60 15.24 69.06 C 14.95 66.42 14.84 63.80 15.17 61.16 Z" fill="#454545" stroke="#454545"/>
  <path d="M 320.03 62.14 L 321.71 62.42 C 320.91 66.80 320.05 71.08 319.73 75.54 C 319.53 76.36 319.34 77.19 319.16 78.02 C 314.07 91.52 320.27 103.67 317.27 117.25 C 315.85 107.86 315.73 98.14 315.57 88.66 C 317.57 79.83 318.11 70.97 320.03 62.14 Z" fill="#8c8c8c" stroke="#8c8c8c"/>
  <path d="M 329.32 68.40 C 328.22 68.30 327.13 68.20 326.03 68.10 C 325.02 67.98 324.00 67.85 323.00 67.70 C 324.95 64.56 327.88 68.15 330.15 65.19 C 333.32 61.64 330.81 67.79 329.32 68.40 Z" fill="#8f8f8f" stroke="#8f8f8f"/>
  <path d="M 326.03 68.10 C 327.13 68.20 328.22 68.30 329.32 68.40 C 328.53 71.59 329.22 72.70 325.43 73.20 C 326.71 71.09 326.71 70.47 326.03 68.10 Z" fill="#3f3f3f" stroke="#3f3f3f"/>
  <path d="M 11.00 69.04 C 13.34 69.25 15.34 73.41 15.17 75.30 C 13.03 80.71 9.14 78.44 4.63 78.34 C 3.14 75.60 4.24 74.92 6.26 73.21 C 7.88 71.72 8.79 69.64 11.00 69.04 Z" fill="#575757" stroke="#575757"/>
  <path d="M 338.67 68.77 C 339.15 73.28 339.09 77.72 338.71 82.24 C 337.46 77.96 337.73 73.09 338.67 68.77 Z" fill="#929292" stroke="#929292"/>
  <path d="M 2.78 70.86 C 3.14 76.29 3.04 81.78 2.89 87.21 L 1.98 87.08 C 0.95 84.02 -0.04 72.33 2.78 70.86 Z" fill="#bcbcbc" stroke="#bcbcbc"/>
  <path d="M 323.26 78.90 C 325.12 77.69 326.48 74.34 328.91 75.13 C 327.06 79.70 323.42 82.07 319.16 78.02 C 319.34 77.19 319.53 76.36 319.73 75.54 C 322.85 74.82 322.09 76.88 323.26 78.90 Z" fill="#464646" stroke="#464646"/>
  <path d="M 179.78 80.08 C 179.90 84.37 182.95 84.54 185.57 87.07 C 185.33 93.54 188.52 91.67 189.97 95.29 C 186.80 95.17 187.78 96.24 186.66 98.60 C 182.76 98.36 179.89 100.28 176.10 98.54 C 169.75 102.83 179.14 104.81 182.09 104.07 C 184.67 100.76 187.27 101.87 190.49 103.45 C 193.55 105.55 196.88 102.76 197.89 106.95 C 195.24 106.78 192.66 106.21 190.01 106.09 C 191.73 108.72 194.55 109.45 194.75 112.82 C 199.44 113.89 202.33 112.08 205.92 109.46 C 209.37 110.27 208.32 114.10 204.96 113.88 C 200.99 113.32 198.74 119.14 196.05 115.48 C 197.42 115.11 198.79 114.89 200.05 114.20 C 195.43 113.75 191.70 113.25 188.03 116.59 C 183.87 113.18 183.43 119.25 178.28 115.50 C 177.62 120.41 177.18 113.53 173.03 115.60 C 175.28 111.88 174.52 107.93 179.99 107.95 C 183.56 107.57 181.83 105.42 179.01 105.94 C 171.50 104.76 175.36 111.80 167.00 109.91 C 172.36 108.01 166.24 108.16 167.47 104.06 C 165.98 101.69 162.52 100.53 160.16 103.15 C 161.43 108.07 164.65 102.18 164.09 109.58 C 157.90 107.42 153.65 106.68 148.58 101.50 C 148.54 99.53 147.70 93.65 151.06 97.91 C 154.69 99.05 161.47 93.56 165.11 96.55 C 166.75 94.32 162.19 94.07 163.19 91.41 C 166.04 91.29 168.60 90.77 170.99 89.13 C 171.63 86.72 175.00 82.17 177.43 82.57 C 180.13 85.91 179.43 79.15 177.33 80.41 C 172.82 80.38 179.93 77.40 179.78 80.08 Z" fill="#696969" stroke="#696969"/>
  <path d="M 21.83 81.98 C 20.73 93.45 24.54 105.05 22.38 116.21 C 20.24 110.50 17.96 116.42 14.44 113.67 C 13.89 112.93 14.36 109.07 12.96 111.03 C 9.85 113.68 9.73 112.13 6.92 110.28 C 6.55 113.74 7.91 115.34 9.75 117.97 C 9.94 119.58 10.62 121.60 12.00 122.54 C 15.52 124.65 13.20 124.06 11.32 125.87 C 12.95 128.13 11.82 129.74 11.45 132.22 C 12.98 131.05 14.03 129.53 15.13 127.97 C 16.31 127.33 17.51 126.72 18.76 126.23 C 19.15 127.36 18.58 130.53 19.86 130.89 C 20.62 129.17 18.56 122.49 21.96 124.91 C 22.28 129.95 22.48 134.74 21.76 139.78 C 20.35 141.81 16.32 145.06 21.65 144.47 C 22.80 153.66 25.44 161.89 21.21 170.32 C 18.78 176.20 14.39 184.59 6.61 181.39 C 0.95 180.13 7.12 170.36 1.31 170.91 L 1.26 170.16 C 4.05 161.94 -1.38 150.54 5.44 144.54 C 7.72 142.01 3.07 144.68 2.07 144.66 C 1.90 141.28 2.23 137.89 2.02 134.53 C 2.05 132.42 2.07 130.31 2.13 128.20 C 2.59 126.26 7.82 117.47 2.60 119.58 L 2.75 118.20 C 5.49 110.51 3.03 101.32 4.29 93.29 C 6.02 90.04 11.06 92.26 10.23 87.63 C 13.31 83.07 11.04 92.29 12.95 88.92 C 14.23 85.36 20.63 84.31 20.29 80.70 C 22.42 79.78 21.80 79.64 21.83 81.98 Z" fill="#656565" stroke="#656565"/>
  <path d="M 24.25 79.78 C 24.99 82.54 25.17 85.35 25.27 88.20 C 24.82 89.40 25.65 95.13 24.11 94.75 C 23.91 90.75 24.04 86.76 23.71 82.77 C 23.90 81.77 24.08 80.77 24.25 79.78 Z" fill="#bababa" stroke="#bababa"/>
  <path d="M 20.29 80.70 C 20.63 84.31 14.23 85.36 12.95 88.92 C 12.48 83.56 16.48 82.85 20.29 80.70 Z" fill="#a8a8a8" stroke="#a8a8a8"/>
  <path d="M 91.55 82.62 C 92.78 83.42 91.32 89.67 89.11 92.01 C 89.46 88.81 90.28 85.58 91.55 82.62 Z" fill="#404040" stroke="#404040"/>
  <path d="M 10.23 87.63 C 11.06 92.26 6.02 90.04 4.29 93.29 C 3.03 101.32 5.49 110.51 2.75 118.20 C 0.69 109.42 0.43 100.07 1.49 91.14 C 4.50 91.15 7.48 88.72 10.23 87.63 Z" fill="#aaaaaa" stroke="#aaaaaa"/>
  <path d="M 329.31 92.97 C 331.71 94.39 332.47 102.75 327.98 100.96 C 325.66 101.62 329.76 98.44 329.86 97.81 C 329.81 96.20 329.49 94.57 329.31 92.97 Z" fill="#939393" stroke="#939393"/>
  <path d="M 328.86 106.03 C 324.85 108.01 326.90 111.88 321.91 112.83 C 322.87 111.47 324.01 110.25 324.97 108.89 C 321.67 103.88 325.30 106.64 328.86 106.03 Z" fill="#969696" stroke="#969696"/>
  <path d="M 6.92 110.28 C 9.73 112.13 9.85 113.68 12.96 111.03 C 12.38 113.84 12.67 116.47 9.75 117.97 C 7.91 115.34 6.55 113.74 6.92 110.28 Z" fill="#3e3e3e" stroke="#3e3e3e"/>
  <path d="M 14.44 113.67 C 17.96 116.42 20.24 110.50 22.38 116.21 C 21.99 119.10 21.92 122.00 21.96 124.91 C 18.56 122.49 20.62 129.17 19.86 130.89 C 18.58 130.53 19.15 127.36 18.76 126.23 C 17.51 126.72 16.31 127.33 15.13 127.97 C 15.78 125.85 15.40 118.80 12.00 122.54 C 10.62 121.60 9.94 119.58 9.75 117.97 C 12.67 116.47 12.38 113.84 12.96 111.03 C 14.36 109.07 13.89 112.93 14.44 113.67 Z" fill="#767676" stroke="#767676"/>
  <path d="M 329.22 110.03 C 325.09 114.45 335.31 110.91 329.22 110.03 Z" fill="#b1b1b1" stroke="#b1b1b1"/>
  <path d="M 340.09 109.94 C 341.50 111.19 341.38 112.38 340.90 114.06 C 339.50 112.81 339.62 111.63 340.09 109.94 Z" fill="#878787" stroke="#878787"/>
  <path d="M 26.29 113.81 C 27.81 122.43 25.52 131.94 25.88 140.78 C 23.87 138.73 25.69 129.55 24.67 125.77 C 25.01 121.75 25.75 117.80 26.29 113.81 Z" fill="#a7a7a7" stroke="#a7a7a7"/>
  <path d="M 322.55 115.18 C 324.13 118.69 325.62 119.70 323.12 123.27 L 322.69 124.11 C 322.14 123.68 321.59 123.24 321.04 122.79 C 320.24 121.83 319.47 120.85 318.68 119.87 C 319.88 118.16 320.89 116.49 322.55 115.18 Z" fill="#4c4c4c" stroke="#4c4c4c"/>
  <path d="M 31.12 117.23 C 32.97 117.57 31.45 124.96 32.13 127.00 C 33.66 132.54 30.72 136.67 30.67 142.15 L 29.71 140.71 C 31.04 132.73 31.05 125.27 31.12 117.23 Z" fill="#a9a9a9" stroke="#a9a9a9"/>
  <path d="M 340.91 117.94 C 341.39 119.63 341.49 120.82 340.05 122.04 C 339.64 120.38 339.51 119.16 340.91 117.94 Z" fill="#949494" stroke="#949494"/>
  <path d="M 2.13 128.20 C 1.97 125.28 1.92 122.44 2.60 119.58 C 7.82 117.47 2.59 126.26 2.13 128.20 Z" fill="#9d9d9d" stroke="#9d9d9d"/>
  <path d="M 333.14 119.27 C 333.38 126.02 331.13 124.67 325.74 125.67 C 326.06 124.20 327.71 119.59 329.44 122.53 C 332.13 126.44 331.09 119.52 333.14 119.27 Z" fill="#3b3b3b" stroke="#3b3b3b"/>
  <path d="M 333.14 119.27 C 333.82 118.96 334.16 119.93 334.16 122.18 C 334.24 124.50 335.22 126.38 335.98 128.52 C 334.85 130.02 334.31 131.72 333.56 133.40 C 332.03 132.73 330.48 132.11 328.91 131.50 C 328.85 125.10 324.29 128.75 322.69 124.11 L 323.12 123.27 C 323.92 124.07 324.69 125.21 325.74 125.67 C 331.13 124.67 333.38 126.02 333.14 119.27 Z" fill="#808080" stroke="#808080"/>
  <path d="M 318.68 119.87 C 319.47 120.85 320.24 121.83 321.04 122.79 C 317.94 127.24 319.66 133.81 318.19 139.04 C 318.28 141.16 316.72 147.17 319.57 147.83 C 318.91 155.95 319.05 163.45 316.12 171.24 C 315.92 165.42 317.82 160.03 316.75 154.12 C 315.84 143.21 318.28 132.07 317.67 121.28 L 318.68 119.87 Z" fill="#8f8f8f" stroke="#8f8f8f"/>
  <path d="M 15.13 127.97 C 14.03 129.53 12.98 131.05 11.45 132.22 C 11.82 129.74 12.95 128.13 11.32 125.87 C 13.20 124.06 15.52 124.65 12.00 122.54 C 15.40 118.80 15.78 125.85 15.13 127.97 Z" fill="#464646" stroke="#464646"/>
  <path d="M 321.04 122.79 C 321.59 123.24 322.14 123.68 322.69 124.11 C 324.29 128.75 328.85 125.10 328.91 131.50 C 328.87 135.06 331.77 139.84 333.56 133.40 C 334.31 131.72 334.85 130.02 335.98 128.52 C 338.53 135.52 338.48 143.77 337.24 151.04 C 336.75 157.04 336.66 164.75 332.61 169.62 C 329.33 172.88 325.38 178.45 321.17 180.04 C 319.66 177.32 316.00 174.44 316.12 171.24 C 319.05 163.45 318.91 155.95 319.57 147.83 C 316.72 147.17 318.28 141.16 318.19 139.04 C 319.66 133.81 317.94 127.24 321.04 122.79 Z" fill="#686868" stroke="#686868"/>
  <path d="M 180.94 132.52 C 179.74 133.32 178.46 133.93 177.19 134.61 C 179.72 137.77 181.34 132.45 183.96 134.95 C 186.37 137.24 183.45 132.06 185.04 131.89 C 188.95 128.97 192.74 134.44 195.06 137.12 C 197.44 140.38 201.13 133.65 202.37 137.63 C 203.83 139.32 201.17 140.24 200.33 141.56 C 203.44 143.04 210.52 145.74 209.64 150.11 C 207.90 149.00 207.04 147.06 205.38 145.80 C 205.79 147.75 206.41 149.64 206.84 151.59 C 205.02 151.64 203.19 151.41 201.38 151.36 C 203.20 157.18 194.98 149.12 192.20 152.05 C 195.97 155.94 192.75 158.28 199.89 158.27 C 196.54 159.01 194.17 163.08 199.12 160.42 C 200.93 164.84 197.65 163.69 194.61 164.34 C 192.44 161.74 192.06 161.12 188.54 160.95 C 189.01 161.85 188.93 164.68 190.37 164.35 C 192.51 164.15 190.33 166.87 192.55 167.23 C 196.03 166.47 199.21 168.05 202.86 168.37 C 203.01 169.53 201.53 170.58 200.77 171.31 C 196.74 170.02 191.35 171.69 192.14 176.84 C 193.73 175.96 195.19 174.91 196.77 174.02 C 196.51 175.45 196.03 176.80 195.53 178.17 C 198.29 177.78 200.74 176.63 203.42 175.94 C 203.46 177.79 202.86 179.35 204.10 180.95 C 205.88 179.03 208.24 176.10 207.89 173.32 C 206.28 173.04 204.65 172.87 203.03 172.65 C 205.86 171.31 208.71 169.97 211.67 168.95 C 211.66 169.53 209.43 172.66 210.67 172.45 C 217.45 172.09 208.77 178.12 207.07 179.67 C 209.18 180.05 211.29 180.48 213.41 180.77 C 212.62 175.99 216.65 180.28 219.03 176.30 C 220.51 180.40 217.52 183.44 222.06 186.04 C 213.52 186.54 207.69 180.66 198.45 182.60 C 193.17 185.99 185.02 186.39 179.20 185.28 C 173.35 189.32 167.72 184.16 162.12 181.89 C 164.62 179.00 166.57 178.31 165.40 174.02 C 166.95 168.83 169.28 164.29 169.95 158.79 C 173.80 164.14 170.02 155.84 174.27 157.13 C 174.68 161.24 180.06 155.69 180.15 153.58 C 184.21 155.94 182.21 154.13 182.32 151.02 C 186.04 151.19 183.25 154.81 184.96 157.01 C 186.30 158.87 189.82 159.39 191.96 159.91 C 190.57 157.32 186.90 155.70 186.05 153.12 C 187.60 153.50 189.08 154.08 190.62 154.49 C 191.35 152.45 192.13 150.43 192.87 148.39 C 187.65 148.42 182.41 150.78 177.29 150.75 C 176.04 150.15 176.52 148.01 176.31 146.85 C 174.16 147.72 175.35 151.32 172.95 151.00 C 170.45 151.96 166.25 144.99 166.66 150.40 C 167.40 153.54 164.02 149.18 162.94 149.03 C 159.48 153.74 156.05 142.44 155.74 140.11 C 154.78 133.75 149.48 145.87 153.98 142.01 C 156.61 140.10 154.33 145.36 152.24 144.71 C 153.97 147.26 153.73 147.15 152.36 149.81 C 155.16 148.95 157.79 149.26 154.91 151.94 C 151.68 154.38 142.38 147.06 148.44 145.31 C 150.72 143.89 145.09 139.40 146.69 144.12 C 147.12 145.22 137.08 137.82 143.41 139.69 C 141.40 135.56 149.95 137.58 149.86 139.96 C 151.53 139.08 152.76 137.32 154.16 136.04 C 162.28 137.15 159.71 145.83 169.02 145.92 C 165.28 143.41 161.97 138.96 160.04 135.03 C 160.49 131.40 165.36 135.45 164.60 132.35 C 164.25 128.57 167.99 133.17 168.40 134.47 C 170.61 134.24 172.67 134.21 174.02 132.18 C 172.77 131.79 167.70 134.05 169.37 131.30 C 173.57 129.33 176.99 130.97 180.94 132.52 Z" fill="#676767" stroke="#676767"/>
  <path d="M 54.98 131.14 C 59.34 135.16 60.48 139.16 65.85 141.78 C 66.60 138.60 65.09 138.59 63.08 136.82 C 66.65 136.35 66.22 132.40 69.60 134.06 C 68.99 136.23 68.04 138.02 68.01 140.32 C 74.43 142.58 77.74 142.52 83.53 145.45 C 85.06 147.83 81.39 146.27 80.15 146.62 C 78.42 148.48 81.10 150.45 82.02 152.08 C 84.63 151.06 85.83 149.03 87.40 146.89 C 89.26 147.17 91.29 147.46 92.95 148.39 C 89.31 149.52 82.69 152.01 82.44 156.53 C 86.85 157.57 83.38 159.96 81.36 160.59 C 79.82 157.33 79.76 158.17 76.13 157.95 C 81.01 160.52 79.20 165.91 85.92 165.49 C 84.38 169.94 76.07 164.13 81.21 169.64 C 75.04 169.03 79.47 166.32 74.63 164.31 C 72.71 161.34 70.49 158.41 68.78 155.32 C 67.80 149.63 63.38 146.36 61.35 141.05 C 61.28 145.89 59.67 148.28 54.87 146.49 C 54.48 151.52 62.24 148.29 61.89 153.83 C 56.99 154.83 55.74 151.42 52.60 148.76 C 49.94 147.93 47.06 149.47 47.48 145.40 C 45.05 145.37 39.52 143.02 45.75 143.74 C 46.98 141.23 49.25 140.09 47.49 137.08 C 52.36 134.90 50.34 137.08 51.25 140.77 C 56.33 139.89 56.81 135.16 54.98 131.14 Z" fill="#646464" stroke="#646464"/>
  <path d="M 328.91 131.50 C 330.48 132.11 332.03 132.73 333.56 133.40 C 331.77 139.84 328.87 135.06 328.91 131.50 Z" fill="#3f3f3f" stroke="#3f3f3f"/>
  <path d="M 2.02 134.53 C 2.23 137.89 1.90 141.28 2.07 144.66 C 3.07 144.68 7.72 142.01 5.44 144.54 C -1.38 150.54 4.05 161.94 1.26 170.16 C 1.32 158.63 -0.16 145.73 2.02 134.53 Z" fill="#9c9c9c" stroke="#9c9c9c"/>
  <path d="M 9.98 136.13 C 9.49 137.33 8.93 138.48 8.41 139.66 C 11.43 139.17 13.45 140.62 12.93 143.88 C 13.31 145.07 8.84 146.78 9.77 144.52 C 12.24 141.03 5.34 142.39 5.93 139.11 C 6.86 137.78 8.62 136.98 9.98 136.13 Z" fill="#3c3c3c" stroke="#3c3c3c"/>
  <path d="M 40.05 136.08 C 41.96 138.64 45.64 143.02 39.37 141.08 C 41.07 144.11 40.61 144.32 39.18 147.27 C 42.36 147.46 42.68 150.26 46.13 149.37 C 50.64 148.61 49.05 153.93 53.22 153.68 C 56.60 155.65 53.91 157.05 52.29 159.04 C 55.96 158.38 57.47 161.65 58.24 156.52 C 63.55 155.29 59.34 159.10 58.84 161.65 C 62.03 159.11 60.56 161.55 61.43 164.02 C 61.96 162.42 62.30 160.77 62.72 159.14 C 65.17 159.14 69.50 159.24 69.09 162.68 C 67.16 162.01 66.23 160.49 64.25 161.99 C 65.24 163.27 65.82 165.68 67.75 165.44 C 71.90 165.09 73.65 169.52 74.41 172.86 C 74.98 172.11 74.84 169.44 76.01 171.15 C 77.66 172.92 83.91 174.02 81.21 169.64 C 85.16 170.58 85.08 171.39 88.18 168.07 C 90.92 169.04 88.33 170.98 88.15 172.91 C 90.83 172.76 93.38 170.82 91.16 168.06 C 96.66 166.07 92.83 177.57 97.43 174.98 C 99.17 178.91 95.67 182.38 91.84 182.76 C 87.02 185.07 82.59 182.43 78.84 185.89 C 74.03 185.16 69.24 185.65 64.65 185.23 C 64.58 183.34 67.78 176.67 64.09 177.01 C 63.08 176.00 63.02 173.09 61.46 175.14 C 63.25 178.96 62.12 182.59 57.92 183.95 C 52.45 186.61 47.71 182.96 42.32 185.43 C 39.99 182.18 38.21 185.41 34.79 184.45 C 30.02 181.91 25.75 178.04 25.92 172.12 C 26.56 172.32 27.21 172.50 27.86 172.68 C 28.25 163.13 29.51 153.49 32.00 144.26 C 33.21 138.62 35.20 138.15 40.05 136.08 Z" fill="#636363" stroke="#636363"/>
  <path d="M 329.14 138.39 C 331.02 138.89 332.86 139.60 334.69 140.28 C 332.87 141.39 330.10 146.70 330.40 141.56 C 328.05 140.34 328.22 140.79 329.14 138.39 Z" fill="#363636" stroke="#363636"/>
  <path d="M 29.71 140.71 L 30.67 142.15 C 31.11 142.85 31.56 143.56 32.00 144.26 C 29.51 153.49 28.25 163.13 27.86 172.68 C 27.21 172.50 26.56 172.32 25.92 172.12 C 26.18 163.41 28.27 154.90 28.35 146.14 C 28.80 144.33 29.25 142.52 29.71 140.71 Z" fill="#959595" stroke="#959595"/>
  <path d="M 340.80 141.99 C 341.34 144.20 341.67 146.07 340.18 148.01 C 339.66 145.79 339.36 143.95 340.80 141.99 Z" fill="#9b9b9b" stroke="#9b9b9b"/>
  <path d="M 323.32 147.95 C 326.33 151.40 323.88 154.92 329.19 157.20 C 326.57 158.70 324.12 159.30 321.09 158.86 C 320.58 156.13 322.66 156.48 323.96 154.78 C 324.09 152.56 323.56 150.18 323.32 147.95 Z" fill="#3a3a3a" stroke="#3a3a3a"/>
  <path d="M 5.21 150.08 C 10.23 148.69 7.24 155.80 7.03 158.36 C 5.69 155.67 7.03 152.87 5.21 150.08 Z" fill="#383838" stroke="#383838"/>
  <path d="M 12.00 152.99 C 14.21 152.85 14.05 154.38 14.88 155.90 C 12.26 154.84 12.55 153.75 10.85 156.60 C 10.16 157.30 10.19 158.18 10.95 159.23 C 13.85 164.86 8.17 160.34 7.03 158.36 C 9.56 157.32 9.26 152.73 12.00 152.99 Z" fill="#3c3c3c" stroke="#3c3c3c"/>
  <path d="M 169.79 153.14 C 169.71 154.08 169.61 155.02 169.49 155.96 C 168.15 160.03 167.04 164.40 164.95 168.08 C 162.45 171.34 163.72 173.94 163.49 177.53 C 158.87 182.56 153.55 182.00 147.36 184.14 C 140.99 182.33 147.12 180.87 148.96 178.04 C 139.62 181.80 128.53 187.65 118.12 185.82 C 114.87 184.67 112.29 182.63 108.75 182.18 C 107.32 179.99 107.09 177.72 105.20 175.97 C 105.18 178.24 106.56 181.08 104.89 182.91 C 100.15 181.23 98.64 173.04 96.85 168.84 C 97.92 167.77 98.97 166.69 100.01 165.59 C 100.57 166.82 104.96 169.95 103.34 166.46 C 101.45 163.41 103.98 162.15 104.84 159.25 C 108.93 158.41 104.83 164.80 110.60 165.06 C 106.37 168.69 114.42 170.74 116.91 171.51 C 115.54 173.62 112.21 171.83 110.05 172.12 C 110.26 175.14 112.21 175.81 114.89 175.62 C 114.56 176.63 111.48 181.48 114.20 180.77 C 114.33 178.21 117.62 176.77 118.57 178.94 C 118.09 182.71 124.10 181.56 121.50 185.23 C 124.26 184.26 123.87 182.26 127.29 182.53 C 128.66 180.31 130.08 177.72 128.66 175.19 C 134.67 173.94 140.25 171.06 146.22 169.46 C 147.90 169.48 149.28 171.85 151.01 171.89 C 152.88 171.42 154.09 170.55 156.02 171.32 C 157.10 168.55 157.31 168.44 154.21 167.57 C 157.81 165.96 159.93 164.64 163.86 165.08 C 165.28 161.49 164.55 154.38 169.79 153.14 Z" fill="#666666" stroke="#666666"/>
  <path d="M 100.93 154.00 C 101.13 157.93 100.03 161.67 100.01 165.59 C 98.97 166.69 97.92 167.77 96.85 168.84 C 96.52 162.32 97.58 159.40 100.93 154.00 Z" fill="#383838" stroke="#383838"/>
  <path d="M 133.93 156.23 C 137.28 159.79 142.64 159.61 146.64 162.65 C 146.28 157.67 147.84 159.30 151.21 160.87 C 147.47 164.32 142.38 167.18 137.69 169.05 C 137.33 167.40 137.93 163.29 135.14 164.29 C 130.36 164.47 125.64 167.32 121.13 165.90 C 122.91 164.71 124.96 164.11 125.95 162.12 C 121.73 161.01 119.78 163.16 117.11 158.16 C 121.04 155.84 121.31 160.70 124.84 158.87 C 128.57 156.99 130.72 159.27 133.93 156.23 Z" fill="#646464" stroke="#646464"/>
  <path d="M 169.49 155.96 C 169.64 156.90 169.79 157.85 169.95 158.79 C 169.28 164.29 166.95 168.83 165.40 174.02 C 165.15 172.05 164.99 170.07 164.95 168.08 C 167.04 164.40 168.15 160.03 169.49 155.96 Z" fill="#a3a3a3" stroke="#a3a3a3"/>
  <path d="M 10.85 156.60 C 15.09 156.74 14.03 158.18 10.95 159.23 C 10.19 158.18 10.16 157.30 10.85 156.60 Z" fill="#a2a2a2" stroke="#a2a2a2"/>
  <path d="M 340.19 157.99 C 341.66 159.93 341.34 161.79 340.82 164.01 C 339.34 162.07 339.66 160.22 340.19 157.99 Z" fill="#a8a8a8" stroke="#a8a8a8"/>
  <path d="M 10.18 170.12 C 11.16 169.73 13.93 166.64 12.39 169.55 C 10.59 172.40 13.57 172.73 14.97 174.88 C 13.41 174.34 11.90 173.66 10.32 173.16 C 9.62 174.86 10.85 178.66 8.01 177.89 C 5.55 178.23 9.54 173.01 6.28 173.34 C 7.76 171.29 6.62 170.50 6.38 168.31 C 8.55 164.66 7.88 172.78 10.18 170.12 Z" fill="#3e3e3e" stroke="#3e3e3e"/>
  <path d="M 321.59 170.44 C 321.84 171.03 326.13 173.00 324.13 173.12 C 320.54 175.10 320.20 172.48 319.33 169.65 C 319.85 165.49 320.87 167.51 321.59 170.44 Z" fill="#3c3c3c" stroke="#3c3c3c"/>
  <path d="M 310.86 173.07 C 310.64 174.03 310.40 174.99 310.13 175.94 C 307.46 177.86 305.81 180.51 304.04 183.21 C 302.70 183.20 300.04 185.05 301.45 182.38 C 304.13 178.97 307.50 175.82 310.86 173.07 Z" fill="#969696" stroke="#969696"/>
  <path d="M 340.80 173.02 C 341.28 175.48 341.67 177.70 340.37 180.01 C 339.67 177.48 339.23 175.34 340.80 173.02 Z" fill="#909090" stroke="#909090"/>
  <path d="M 333.68 174.15 C 333.43 176.16 335.03 182.51 331.10 179.62 C 329.20 181.37 327.73 184.40 325.20 185.11 C 326.57 180.31 329.91 177.16 333.68 174.15 Z" fill="#797979" stroke="#797979"/>
  <path d="M 2.20 175.04 C 3.71 177.32 3.30 179.45 2.74 181.96 C 1.11 179.80 1.85 177.48 2.20 175.04 Z" fill="#a2a2a2" stroke="#a2a2a2"/>
  <path d="M 310.13 175.94 C 309.45 179.88 308.56 182.76 304.04 183.21 C 305.81 180.51 307.46 177.86 310.13 175.94 Z" fill="#666666" stroke="#666666"/>
  <path d="M 64.09 177.01 C 67.78 176.67 64.58 183.34 64.65 185.23 C 61.97 185.08 64.63 178.85 64.09 177.01 Z" fill="#8d8d8d" stroke="#8d8d8d"/>
  <path d="M 277.18 188.84 C 274.37 188.93 271.58 188.93 268.77 188.77 C 271.76 187.79 274.22 187.57 277.18 188.84 Z" fill="#7a7a7a" stroke="#7a7a7a"/>
  <path d="M 65.02 189.15 C 67.53 188.70 69.70 188.32 71.98 189.77 C 69.45 190.30 67.28 190.77 65.02 189.15 Z" fill="#7c7c7c" stroke="#7c7c7c"/>
  <path d="M 208.23 189.79 C 203.07 190.08 197.93 190.13 192.77 189.74 C 197.60 188.60 203.44 188.50 208.23 189.79 Z" fill="#8e8e8e" stroke="#8e8e8e"/>
  <path d="M 294.23 189.20 C 291.10 190.32 288.01 190.00 284.77 189.80 C 287.90 188.67 290.98 189.00 294.23 189.20 Z" fill="#7b7b7b" stroke="#7b7b7b"/>
</svg>